<?xml version="1.0" encoding="UTF-8"?>
<svg width="424px" height="99px" viewBox="0 0 424 99" version="1.1" xmlns="http://www.w3.org/2000/svg" xmlns:xlink="http://www.w3.org/1999/xlink">
    <title>AEFF4354-1009-4172-B75E-C0CA607AD57F</title>
    <g id="页面-2" stroke="none" stroke-width="1" fill="none" fill-rule="evenodd" opacity="0.0599999987">
        <g id="我的资产" transform="translate(-517.000000, -85.000000)" fill="#FFFFFF" fill-rule="nonzero">
            <g id="编组-14" transform="translate(0.000000, 64.000000)">
                <g id="编组-15" transform="translate(517.000000, 21.000000)">
                    <path d="M34.28,171 L34.28,66.12 L101.96,171 L131.72,171 L131.72,0.12 L98.36,0.12 L98.36,104.76 L30.68,0.12 L0.92,0.12 L0.92,171 L34.28,171 Z M204.92,171 L204.92,101.64 L272.36,101.64 L272.36,71.88 L204.92,71.88 L204.92,29.88 L284.12,29.88 L284.12,0.12 L171.56,0.12 L171.56,171 L204.92,171 Z M378.44,171 L378.44,29.88 L423.08,29.88 L423.08,0.12 L300.44,0.12 L300.44,29.88 L345.08,29.88 L345.08,171 L378.44,171 Z" id="NFT"></path>
                </g>
            </g>
        </g>
    </g>
</svg>