<?xml version="1.0" encoding="UTF-8"?>
<svg width="16px" height="16px" viewBox="0 0 16 16" version="1.1" xmlns="http://www.w3.org/2000/svg" xmlns:xlink="http://www.w3.org/1999/xlink">
    <title>A3D4DB4C-AB8A-496F-9E44-11203D14A9ED</title>
    <g id="控件" stroke="none" stroke-width="1" fill="none" fill-rule="evenodd">
        <g id="dapp_discord">
            <rect id="矩形备份-10" fill="#D8D8D8" opacity="0" x="0" y="0" width="16" height="16"></rect>
            <path d="M5.98385674,3 L6.12146005,3.13760331 C4.04400296,3.64097267 3.01395944,4.54993252 2.86778385,4.68679398 L2.84955922,4.70424243 L2.84955922,4.70424243 L2.88177674,4.68848838 C2.96693994,4.64716254 3.21792837,4.52729477 3.59873277,4.36176309 C4.96457299,3.81644628 5.98385674,3.61258954 6.46292009,3.61258954 L6.46292009,3.61258954 L6.66677686,3.61258954 C7.41595041,3.54735537 8.30272727,3.47498623 9.18950413,3.61258954 C10.4167218,3.75019285 11.6439394,4.09063362 13.0057025,4.77151516 C13.0057025,4.77151516 11.9833609,3.81644628 9.87038567,3.20487603 L9.87038567,3.20487603 L10.059,3.018 L10.0878744,3.01864536 C10.4338558,3.02377968 11.827009,3.10731816 13.3506056,4.15979669 L13.55,4.30264463 C13.55,4.30264463 15.4,7.51338843 15.4,11.4580165 C15.3938843,11.4504738 15.3775146,11.4614209 15.350206,11.4872965 L15.2808004,11.5578969 C14.9291475,11.9262075 13.7861341,13.1663361 11.4553719,13.2173003 C11.4553719,13.2173003 10.981405,12.6730028 10.6450413,12.1980165 C12.2809917,11.7209917 12.892562,10.7669421 12.892562,10.7669421 C12.3553994,11.1104408 11.8661432,11.3142975 11.4686226,11.5181543 C10.8570523,11.7913223 10.2454821,11.9258678 9.63391183,12.0634711 C8.39650137,12.2673278 7.30994489,12.2010744 6.362011,12.0634711 C5.73149349,11.9524035 5.11586659,11.7690835 4.52730026,11.517135 C4.25209365,11.3846281 3.91573001,11.2480441 3.57936638,11.1094215 C3.54878786,11.1094215 3.5345179,11.0951515 3.51820935,11.078843 L3.51820935,11.078843 C3.5019008,11.057438 3.48763084,11.0421488 3.45705233,11.0421488 L3.45705233,11.0421488 L3.3958953,11.0421488 C3.24955528,10.9445888 3.13805812,10.8823916 3.08629158,10.8548145 L3.05443525,10.838292 C3.05443525,10.838292 3.6660055,11.7923416 5.23570248,12.2693664 C4.82289256,12.7474105 4.41517906,13.2906887 4.41517906,13.2906887 C1.61928375,13.223416 0.6,11.4498623 0.6,11.4498623 C0.6,7.49911847 2.43980715,4.29449037 2.43980715,4.29449037 C4.02584781,3.12231404 5.51114178,3.00911416 5.89070368,3.00018723 L5.98385674,3 Z M10.2780992,7.49911847 C9.56765839,7.50217632 8.98564737,8.111708 8.98360881,8.86597797 C8.98360881,9.61413223 9.56460054,10.2257025 10.2780992,10.2257025 C10.9915978,10.2257025 11.5725895,9.61413223 11.5725895,8.85986227 C11.5725895,8.11068871 10.9946557,7.49911847 10.2780992,7.49911847 L10.2780992,7.49911847 Z M5.6474931,7.49911847 C4.92991736,7.50217632 4.34892562,8.111708 4.34892562,8.86597797 C4.34892562,9.61413223 4.92991733,10.2257025 5.64341596,10.2257025 C6.35691459,10.2257025 6.93790633,9.61413223 6.93790633,8.85986227 C6.93790633,8.11068871 6.36099174,7.49911847 5.6474931,7.49911847 L5.6474931,7.49911847 Z" id="形状结合" fill="#FFFFFF" fill-rule="nonzero"></path>
        </g>
    </g>
</svg>