<?xml version="1.0" encoding="UTF-8"?>
<svg width="16px" height="16px" viewBox="0 0 16 16" version="1.1" xmlns="http://www.w3.org/2000/svg" xmlns:xlink="http://www.w3.org/1999/xlink">
    <title>6373A436-4593-4B3C-8906-BFCB43474836</title>
    <g id="控件" stroke="none" stroke-width="1" fill="none" fill-rule="evenodd">
        <g id="dapp_website">
            <rect id="矩形备份-10" fill="#D8D8D8" opacity="0" x="0" y="0" width="16" height="16"></rect>
            <g id="官网" transform="translate(1.000000, 2.000000)" fill="#FFFFFF" fill-rule="nonzero">
                <path d="M12.3718857,10.3504209 L8.77904181,10.3504209 L8.77904181,11.9454356 L9.60094,11.9454356 C9.82854238,11.9454356 10.0127943,12.129675 10.0127943,12.3572774 C10.0127943,12.5848923 9.82854238,12.7691317 9.60094,12.7691317 L4.7996397,12.7691317 C4.5720498,12.7691317 4.38779787,12.5848798 4.38779787,12.3572774 C4.38779787,12.129675 4.5720498,11.9454356 4.7996397,11.9454356 L5.62153789,11.9454356 L5.62153789,10.3504209 L1.60239369,10.3504209 C0.724509489,10.3504209 0.0127978739,9.64051976 0.00737906678,8.7644335 L0.00737906678,1.59500214 C0.00737906678,1.1723227 0.175374572,0.765899686 0.475219392,0.467840325 C0.77510167,0.167995505 1.17972674,0 1.60240618,0 L12.3718982,0 C12.7945901,0 13.2010256,0.167995505 13.4990725,0.467840325 C13.7989298,0.767697631 13.9669128,1.1723227 13.9669128,1.59501463 L13.9669128,8.76444599 C13.9669128,9.18712543 13.7989298,9.59356093 13.4990725,9.89160781 C13.1992152,10.1914651 12.7945901,10.3594481 12.3718982,10.3594481 L12.3718982,10.3504209 L12.3718857,10.3504209 Z M0.803981164,7.96602098 L0.803981164,8.78791916 C0.803981164,9.2413135 1.17248502,9.60981735 1.62587935,9.60981735 L12.3700878,9.60981735 C12.8234821,9.60981735 13.1919735,9.2413135 13.1919735,8.78791916 L13.1919735,7.96602098 L0.803981164,7.96602098 L0.803981164,7.96602098 Z" id="形状"></path>
            </g>
        </g>
    </g>
</svg>