<?xml version="1.0" encoding="UTF-8"?>
<svg width="16px" height="16px" viewBox="0 0 16 16" version="1.1" xmlns="http://www.w3.org/2000/svg" xmlns:xlink="http://www.w3.org/1999/xlink">
    <title>F052130E-83CC-4AC1-B00F-608636999A2E</title>
    <g id="控件" stroke="none" stroke-width="1" fill="none" fill-rule="evenodd">
        <g id="dapp_record">
            <rect id="矩形备份-10" fill="#D8D8D8" opacity="0" x="0" y="0" width="16" height="16"></rect>
            <path d="M4.6208633,3 L15,3 L15,5.35422927 L4.6208633,5.35422927 L4.6208633,3 Z M4.6208633,6.94013673 L15,6.94013673 L15,9.28880598 L4.6208633,9.28880598 L4.6208633,6.94013673 L4.6208633,6.94013673 Z M4.6208633,10.6512166 L15,10.6512166 L15,13 L4.6208633,13 L4.6208633,10.6512166 L4.6208633,10.6512166 Z M1,3 L3.36142081,3 L3.36142081,5.35422927 L1,5.35422927 L1,3 Z M1,6.94013673 L3.36142081,6.94013673 L3.36142081,9.28880598 L1,9.28880598 L1,6.94013673 L1,6.94013673 Z M1,10.6512166 L3.36142081,10.6512166 L3.36142081,13 L1,13 L1,10.6512166 L1,10.6512166 Z" id="形状" fill="#7A8599" fill-rule="nonzero" opacity="0.600000024"></path>
        </g>
    </g>
</svg>