<?xml version="1.0" encoding="UTF-8"?>
<svg width="16px" height="16px" viewBox="0 0 16 16" version="1.1" xmlns="http://www.w3.org/2000/svg" xmlns:xlink="http://www.w3.org/1999/xlink">
    <title>B7142918-0E60-449E-BED0-2488BEB411EF</title>
    <g id="控件" stroke="none" stroke-width="1" fill="none" fill-rule="evenodd" opacity="0.600000024">
        <g id="dapp_twitter">
            <rect id="矩形" fill="#D8D8D8" opacity="0" x="0" y="0" width="16" height="16"></rect>
            <path d="M4.86112122,14.7974978 C7.2510463,14.8774623 9.57173806,13.9875533 11.2954391,12.3301485 C13.0191402,10.6727436 13.9993377,8.38872059 14.0131212,5.99749784 C14.5552411,5.3266274 14.9577937,4.5541615 15.1971212,3.72549785 C15.233614,3.59175965 15.1882124,3.44905631 15.0811517,3.36099023 C14.974091,3.27292416 14.8253105,3.25589706 14.7011212,3.31749785 C14.1195605,3.59744137 13.4242224,3.47511337 12.9731212,3.01349783 C12.405728,2.39216369 11.6109146,2.02706786 10.7698827,2.00144503 C9.92885081,1.97582219 9.11328607,2.29185632 8.50912122,2.87749784 C7.67629282,3.68405365 7.32714639,4.86811544 7.58912121,5.99749784 C4.90912122,6.15749783 3.06912121,4.88549783 1.59712122,3.14149784 C1.50676105,3.03916862 1.36444104,2.99995415 1.23442126,3.04156048 C1.10440148,3.08316681 1.0112872,3.19772025 0.997121219,3.33349784 C0.422814288,6.51922822 1.89061363,9.72605071 4.67712121,11.3734978 C3.76483078,12.4197582 2.48368811,13.0732269 1.10112121,13.1974978 C0.949265135,13.2226812 0.830222244,13.341628 0.804916297,13.4934637 C0.77961035,13.6452994 0.853641148,13.7964251 0.989121213,13.8694978 C2.19193747,14.4705913 3.51650564,14.7880498 4.86112122,14.7974978" id="路径" fill="#7A8599"></path>
        </g>
    </g>
</svg>