<?xml version="1.0" encoding="UTF-8"?>
<svg width="16px" height="16px" viewBox="0 0 16 16" version="1.1" xmlns="http://www.w3.org/2000/svg" xmlns:xlink="http://www.w3.org/1999/xlink">
    <title>C70E6A9E-8E10-47AE-88A2-414FA3A52630</title>
    <g id="控件" stroke="none" stroke-width="1" fill="none" fill-rule="evenodd" opacity="0.600000024">
        <g id="dapp_intro">
            <rect id="矩形备份-10" fill="#D8D8D8" opacity="0" x="0" y="0" width="16" height="16"></rect>
            <g id="简介" transform="translate(2.000000, 1.000000)" fill="#7A8599" fill-rule="nonzero">
                <path d="M10.7714985,0.0131495787 L1.41631749,0.0131495787 C0.628052818,0.0594666806 0.0119479591,0.76645794 0.0136920682,1.61939178 L0.0136920682,13.573574 C0.0136920682,13.7133993 0.079238854,13.8436115 0.188477289,13.9231371 C0.29596792,14.0017888 0.433171423,14.0166452 0.554644588,13.9642107 L6.07249727,12.6262582 L11.6934711,13.9484804 C11.8135194,14.0017751 11.9526822,13.9885215 12.0605123,13.9135241 C12.1705676,13.8308179 12.2347908,13.7007496 12.233546,13.5630872 L12.233546,6.1549723 C12.242285,6.08331187 12.2484024,6.01252536 12.2484024,5.94086493 L12.2484024,1.60366144 C12.2440329,0.724510384 11.5842326,0.0131495787 10.7714985,0.0131495787 Z M10.1929717,8.05834309 C10.1929717,8.46296232 9.87749102,8.7950472 9.49122387,8.7950472 L2.7708743,8.7950472 C2.38285931,8.79329938 2.07000039,8.46471012 2.06825257,8.05834309 L2.06825257,7.98843048 C2.06825257,7.58381124 2.38373322,7.25260027 2.77000039,7.25260027 L9.49122387,7.25260027 C9.87749104,7.25260027 10.1938456,7.58381126 10.1938456,7.98843048 L10.1938456,8.05834309 L10.1929717,8.05834309 Z M10.1929717,4.85984122 C10.1929717,5.26446045 9.87749102,5.59654533 9.49122387,5.59654533 L2.7708743,5.59654533 C2.38285931,5.59479751 2.07000039,5.26620825 2.06825257,4.85984122 L2.06825257,4.78992861 C2.06825257,4.38530938 2.38373322,4.05409839 2.77000039,4.05409839 L9.49122387,4.05409839 C9.87749104,4.05409839 10.1938456,4.38530938 10.1938456,4.78992861 L10.1938456,4.85984122 L10.1929717,4.85984122 Z" id="形状"></path>
            </g>
        </g>
    </g>
</svg>