<?xml version="1.0" encoding="UTF-8"?>
<svg width="24px" height="24px" viewBox="0 0 24 24" version="1.1" xmlns="http://www.w3.org/2000/svg" xmlns:xlink="http://www.w3.org/1999/xlink">
    <title>9F8C35E8-EDCC-4DDC-A07E-E8871D3CB816</title>
    <g id="控件" stroke="none" stroke-width="1" fill="none" fill-rule="evenodd" opacity="0.800000012">
        <g id="discord" fill="#FFFFFF">
            <path d="M12,0 C18.627417,0 24,5.372583 24,12 C24,18.627417 18.627417,24 12,24 C5.372583,24 0,18.627417 0,12 C0,5.372583 5.372583,0 12,0 Z M9.61860372,5.99993537 C9.20960534,6.00782105 7.50738468,6.12510796 5.68842974,7.4694215 C5.68842974,7.4694215 3.6,11.1071074 3.6,15.5917355 C3.6,15.5917355 4.7570248,17.6049587 7.93074379,17.6813223 C7.93074379,17.6813223 8.39355372,17.0646281 8.86214876,16.5219835 C7.08033057,15.9804959 6.38611569,14.8975207 6.38611569,14.8975207 C6.38611569,14.8975207 6.54115701,14.9738843 6.77371899,15.1289256 L6.77371899,15.1289256 L6.84314048,15.1289256 L6.87245177,15.1343251 C6.88890723,15.1412672 6.90022036,15.1543802 6.91256197,15.1705785 L6.91256197,15.1705785 L6.93107437,15.1878053 C6.9439302,15.19809 6.95884296,15.2052893 6.98198345,15.2052893 C7.36380163,15.3626446 7.74561982,15.517686 8.05801651,15.6680992 C8.72611883,15.9540947 9.42493855,16.1621877 10.1406611,16.2882645 C11.2166942,16.4444628 12.4500826,16.5196694 13.8547107,16.2882645 C14.5489256,16.1320661 15.2431405,15.9793388 15.9373554,15.6692562 C16.388595,15.4378512 16.9439669,15.2064463 17.553719,14.8165289 C17.553719,14.8165289 16.8595041,15.8995041 15.0024793,16.4409917 C15.3842975,16.9801653 15.922314,17.5980165 15.922314,17.5980165 C19.0971901,17.5285951 20.3305785,15.5153719 20.4,15.6009917 C20.4,11.1233058 18.3,7.47867769 18.3,7.47867769 L18.3,7.47867769 L18.0978398,7.33329387 C16.3508689,6.11709279 14.7498026,6.02615692 14.3646085,6.02108924 L14.3646085,6.02108924 L14.337,6.02 L14.1231405,6.23256198 L14.3753902,6.30836703 C16.6030652,7.00283205 17.6821488,8.0109091 17.6821488,8.0109091 C16.1363636,7.23801655 14.7433058,6.85157026 13.3502479,6.69537191 C12.3436364,6.53917356 11.3370248,6.62132231 10.4866116,6.69537191 L10.4866116,6.69537191 L10.2552066,6.69537191 L10.1529207,6.69780583 C9.57392318,6.72393721 8.46317937,6.96318911 7.00396693,7.54578513 C6.56187829,7.73795643 6.27392254,7.87591012 6.18382586,7.91972233 L6.18382586,7.91972233 L6.15355371,7.93454546 C6.16393721,7.9244265 6.17583171,7.91306108 6.19377023,7.89670977 L6.19377023,7.89670977 L6.26580388,7.83331765 C6.61209857,7.53772581 7.7690909,6.66466943 9.8676033,6.15619835 L9.8676033,6.15619835 L9.71140495,6 Z M14.5859504,11.1071074 C15.3993389,11.1071074 16.0553719,11.8013223 16.0553719,12.6517355 C16.0553719,13.5079339 15.3958678,14.2021488 14.5859504,14.2021488 C13.776033,14.2021488 13.1165289,13.5079339 13.1165289,12.6586777 C13.118843,11.8024794 13.7795041,11.1105785 14.5859504,11.1071074 Z M9.32958677,11.1071074 C10.1395041,11.1071074 10.7943802,11.8013223 10.7943802,12.6517355 C10.7943802,13.5079339 10.134876,14.2021488 9.32495866,14.2021488 C8.5150413,14.2021488 7.85553719,13.5079339 7.85553719,12.6586777 C7.85553719,11.8024794 8.51504132,11.1105785 9.32958677,11.1071074 Z"></path>
        </g>
    </g>
</svg>