<?xml version="1.0" encoding="UTF-8"?>
<svg width="40px" height="40px" viewBox="0 0 40 40" version="1.1" xmlns="http://www.w3.org/2000/svg" xmlns:xlink="http://www.w3.org/1999/xlink">
    <title>39C920D8-180C-4DFC-B65F-8000A67FA312</title>
    <defs>
        <linearGradient x1="50%" y1="0%" x2="50%" y2="100%" id="linearGradient-1">
            <stop stop-color="#FFFFFF" stop-opacity="0.8" offset="0%"></stop>
            <stop stop-color="#FFFFFF" stop-opacity="0.1" offset="100%"></stop>
        </linearGradient>
    </defs>
    <g id="控件" stroke="none" stroke-width="1" fill="none" fill-rule="evenodd">
        <g id="icon_number">
            <rect id="矩形" fill="#D8D8D8" opacity="0" x="0" y="0" width="40" height="40"></rect>
            <g id="交易数据" transform="translate(2.000000, 4.000000)" fill="url(#linearGradient-1)">
                <path d="M27.1684528,26.3508293 L31.1196723,26.3508293 C32.2107943,26.3508293 33.0946967,25.4341464 33.0946967,24.3020488 L33.0946967,10.8386341 C33.0946967,9.70770732 32.2107942,8.79102439 31.1196723,8.79102439 L27.1684528,8.79102439 C26.0773308,8.79102439 25.1922576,9.70887804 25.1922576,10.8386341 L25.1922576,24.3020488 C25.1934284,25.4341463 26.0773308,26.3508293 27.1684528,26.3508293 Z M17.523965,26.3508293 L21.4751845,26.3508293 C22.5663065,26.3508293 23.4513796,25.4435122 23.4513796,24.3242927 L23.4513796,4.65600001 C23.4513796,3.53678049 22.5663064,2.62712195 21.4751845,2.62712195 L17.523965,2.62712195 C16.432843,2.62712195 15.5489394,3.53560977 15.5489394,4.65600001 L15.5489394,24.3242927 C15.5477698,25.4435122 16.432843,26.3508293 17.523965,26.3508293 Z M33.9867942,28.097561 L4.1331357,28.097561 L4.1331357,1.75609756 C4.1331357,0.650926818 3.49040399,0 2.37703814,0 C1.26367228,0 0.620940574,0.650926818 0.620940574,1.75609756 L0.620940574,29.6101464 C0.620940574,30.7141463 1.52357472,31.6097561 2.63811129,31.6097561 L33.9867942,31.6097561 C35.1001601,31.6097561 35.7428918,30.9576585 35.7428918,29.8536585 C35.7428918,28.7484878 35.1001601,28.097561 33.9867942,28.097561 L33.9867942,28.097561 Z M7.85137961,26.3508293 L11.8025991,26.3508293 C12.8944002,26.3495372 13.7787942,25.4640945 13.7787942,24.3722927 L13.7787942,17.7787317 C13.7787942,16.6852683 12.8937211,15.8001951 11.8025991,15.8001951 L7.85137961,15.8001951 C6.75957853,15.8014872 5.87518448,16.6869299 5.87518448,17.7787317 L5.87518448,24.3722927 C5.87518448,25.4640945 6.75957852,26.3495372 7.85137961,26.3508293 Z" id="形状"></path>
            </g>
        </g>
    </g>
</svg>