<?xml version="1.0" encoding="UTF-8"?>
<svg width="40px" height="40px" viewBox="0 0 40 40" version="1.1" xmlns="http://www.w3.org/2000/svg" xmlns:xlink="http://www.w3.org/1999/xlink">
    <title>78D1DAEC-6CB5-4EF4-8B83-31F3CC2DEB98</title>
    <defs>
        <linearGradient x1="50%" y1="0%" x2="50%" y2="100%" id="linearGradient-1">
            <stop stop-color="#FFFFFF" stop-opacity="0.8" offset="0%"></stop>
            <stop stop-color="#FFFFFF" stop-opacity="0.1" offset="100%"></stop>
        </linearGradient>
    </defs>
    <g id="控件" stroke="none" stroke-width="1" fill="none" fill-rule="evenodd">
        <g id="icon_turnover">
            <rect id="矩形" fill="#D8D8D8" opacity="0" x="0" y="0" width="40" height="40"></rect>
            <g id="金额" transform="translate(4.000000, 2.000000)" fill="url(#linearGradient-1)">
                <path d="M10.1874851,8.49231583 L22.6980749,8.4585193 C23.2762338,8.39450326 25.4055375,6.05970683 25.8963682,3.59252016 C26.3677103,1.25945056 24.9482156,0.519463125 21.3905774,0.519463125 C17.8240173,0.519463125 18.5622779,3.79344909 17.8435469,3.79344909 C17.4274221,3.79344909 17.0485065,1.27996694 15.4243413,0.213608813 C14.2646111,-0.548580696 12.6582899,1.41165824 11.1196439,1.42584292 C9.32657846,1.44179554 6.98557367,1.22659971 6.98557367,3.72227906 C6.98557367,5.79106157 9.57557077,8.49231583 10.1874851,8.49231583 L10.1874851,8.49231583 Z M9.67346554,8.85519663 C9.18242932,8.85519663 8.78398405,9.16738272 8.78398405,9.54716179 C8.78398405,9.93055898 9.18242932,10.2382224 9.67346554,10.2382224 L23.3508163,10.2382224 C23.8454296,10.2382224 24.240339,9.93055898 24.240339,9.54716175 C24.240339,9.16738268 23.8418937,8.85519663 23.3508163,8.85519663 L9.67346554,8.85519663 L9.67346554,8.85519663 Z M24.09804,11.4487708 L9.06327812,11.4487708 C4.18387548,14.1677045 0.0393209196,19.4677956 0.0393209196,26.4415954 C0.0393209196,34.128 7.78250531,35.8819651 16.6233364,35.8819651 C25.4623995,35.8819651 32.8267093,34.0426453 32.8267093,26.3508957 C32.8230912,19.8920611 29.2459234,14.3064675 24.09804,11.4487708 L24.09804,11.4487708 Z M19.7007105,21.2874624 C20.3196966,21.2874624 20.8196136,21.7312986 20.8196136,22.279238 C20.8196136,22.8270129 20.3196966,23.2708491 19.7007105,23.2708491 L17.4646311,23.2708491 L17.4646311,24.2635703 L19.7007105,24.2635703 C20.3196966,24.2635703 20.8196136,24.7064198 20.8196136,25.2551403 C20.8196136,25.803902 20.3196966,26.2478616 19.7007105,26.2478616 L17.4646311,26.2478616 L17.4646311,28.3325967 C17.4646311,28.8805361 16.9631106,29.3243312 16.3458925,29.3243312 C15.7284688,29.3243312 15.2269894,28.8805361 15.2269894,28.3325967 L15.2269894,26.2478616 L12.99091,26.2478616 C12.3719651,26.2478616 11.8720069,25.803902 11.8720069,25.2551403 C11.8720069,24.7064198 12.3719651,24.2635703 12.99091,24.2635703 L15.2269894,24.2635703 L15.2269894,23.2708491 L12.99091,23.2708491 C12.3719651,23.2708491 11.8720069,22.8270129 11.8720069,22.279238 C11.8720069,21.7312986 12.3719651,21.2874624 12.99091,21.2874624 L15.2269894,21.2874624 L15.2269894,20.7075767 L12.0907797,18.0170535 C11.6462034,17.6364521 11.6353902,17.0076396 12.0642194,16.6136347 C12.4928431,16.2204932 13.200802,16.2097622 13.6455427,16.590487 L16.4330151,18.98305 L19.2204875,16.590487 C19.6650638,16.2097623 20.3731871,16.2213567 20.8018108,16.6136347 C21.2304755,17.0076395 21.2198268,17.6364521 20.775086,18.0170535 L17.4646722,20.8561252 L17.4646722,21.2866813 L19.7007516,21.2866813 L19.7007516,21.2874624 L19.7007105,21.2874624 Z" id="形状"></path>
            </g>
        </g>
    </g>
</svg>