<?xml version="1.0" encoding="UTF-8"?>
<svg width="16px" height="16px" viewBox="0 0 16 16" version="1.1" xmlns="http://www.w3.org/2000/svg" xmlns:xlink="http://www.w3.org/1999/xlink">
    <title>90ED9421-E7AC-4BA2-AB10-35F119260504</title>
    <g id="控件" stroke="none" stroke-width="1" fill="none" fill-rule="evenodd">
        <g id="icon_recharge" fill-rule="nonzero">
            <g>
                <rect id="矩形" fill="#000000" opacity="0" x="0" y="0" width="16" height="16"></rect>
                <path d="M8,14.9953125 C4.1421875,14.9953125 1.0046875,11.8578125 1.0046875,8 C1.0046875,4.1421875 4.1421875,1.0046875 8,1.0046875 L8,1.9703125 C4.675,1.9703125 1.9703125,4.675 1.9703125,8 C1.9703125,11.325 4.675,14.0296875 8,14.0296875 C11.325,14.0296875 14.0296875,11.325 14.0296875,8 L14.9953125,8 C14.9953125,11.8578125 11.85625,14.9953125 8,14.9953125 Z M10.8609375,8.8828125 L7.0015625,8.8828125 L7.0015625,5.0234375 L7.965625,5.0234375 L7.965625,7.9171875 L10.8609375,7.9171875 L10.8609375,8.8828125 Z M7.30835938,7.8933125 L12.7662969,2.435375 L13.4490938,3.11817188 L7.99115625,8.57609375 L7.30835938,7.8933125 Z" id="形状" fill="#7A8599"></path>
            </g>
        </g>
    </g>
</svg>