<?xml version="1.0" encoding="UTF-8"?>
<svg width="16px" height="16px" viewBox="0 0 16 16" version="1.1" xmlns="http://www.w3.org/2000/svg" xmlns:xlink="http://www.w3.org/1999/xlink">
    <title>97B61892-4305-4FBA-AD65-8748ECF0C7A2</title>
    <g id="控件" stroke="none" stroke-width="1" fill="none" fill-rule="evenodd">
        <g id="icon_search" fill-rule="nonzero">
            <g id="搜索">
                <rect id="矩形" fill="#292C33" opacity="0" x="0" y="0" width="16" height="16"></rect>
                <path d="M7.3890625,12.8953125 C6.646875,12.8953125 5.9265625,12.75 5.2484375,12.4625 C4.59375,12.1859375 4.0046875,11.7890625 3.5,11.284375 C2.9953125,10.7796875 2.5984375,10.190625 2.321875,9.5359375 C2.034375,8.8578125 1.8890625,8.1375 1.8890625,7.3953125 C1.8890625,6.653125 2.034375,5.9328125 2.321875,5.2546875 C2.5984375,4.6 2.9953125,4.0109375 3.5,3.50625 C4.0046875,3.0015625 4.59375,2.6046875 5.2484375,2.328125 C5.9265625,2.040625 6.646875,1.8953125 7.3890625,1.8953125 C8.13125,1.8953125 8.8515625,2.040625 9.5296875,2.328125 C10.184375,2.6046875 10.7734375,3.0015625 11.278125,3.50625 C11.7828125,4.0109375 12.1796875,4.6 12.45625,5.2546875 C12.74375,5.9328125 12.8890625,6.653125 12.8890625,7.3953125 C12.8890625,8.1375 12.74375,8.8578125 12.45625,9.5359375 C12.1796875,10.190625 11.7828125,10.7796875 11.278125,11.284375 C10.7734375,11.7890625 10.184375,12.1859375 9.5296875,12.4625 C8.853125,12.75 8.1328125,12.8953125 7.3890625,12.8953125 Z M7.3890625,2.8953125 C4.9078125,2.8953125 2.8890625,4.9140625 2.8890625,7.3953125 C2.8890625,9.8765625 4.9078125,11.8953125 7.3890625,11.8953125 C9.8703125,11.8953125 11.8890625,9.8765625 11.8890625,7.3953125 C11.8890625,4.9140625 9.8703125,2.8953125 7.3890625,2.8953125 Z M13.25625,13.959375 L11.8421875,12.5453125 C11.646875,12.35 11.646875,12.0328125 11.8421875,11.8375 C12.0375,11.6421875 12.3546875,11.6421875 12.55,11.8375 L13.9640625,13.2515625 C14.159375,13.446875 14.159375,13.7640625 13.9640625,13.959375 C13.76875,14.1546875 13.4515625,14.1546875 13.25625,13.959375 Z" id="形状" fill="#7A8599" opacity="0.400000006"></path>
            </g>
        </g>
    </g>
</svg>