<?xml version="1.0" encoding="UTF-8"?>
<svg width="24px" height="24px" viewBox="0 0 24 24" version="1.1" xmlns="http://www.w3.org/2000/svg" xmlns:xlink="http://www.w3.org/1999/xlink">
    <title>2D814509-45AB-4546-9018-B567EB470D04</title>
    <defs>
        <linearGradient x1="50%" y1="0%" x2="50%" y2="100%" id="linearGradient-1">
            <stop stop-color="#90B5FF" offset="0%"></stop>
            <stop stop-color="#4572CC" offset="100%"></stop>
        </linearGradient>
        <path d="M11.3647059,0.0012978686 C11.8313726,0.0012978686 12.2431373,0.385611589 12.2431373,0.879729236 L12.2431373,0.879729236 L12.2431373,13.4522783 C12.2431373,13.836592 11.8862745,14.0561998 11.5294118,13.9189449 L11.5294118,13.9189449 L6.12156863,11.3385528 L0.713725501,13.9189449 C0.38431372,14.0561998 0,13.809141 0,13.4522783 L0,13.4522783 L0,0.879729236 C0,0.385611589 0.384313736,-0.0261531172 0.878431383,0.0012978686 L0.878431383,0.0012978686 Z M8.48388247,2.17628542 C8.24883524,1.94123819 7.87947534,1.94123819 7.64442811,2.17628542 L7.64442811,2.17628542 L6.09983211,3.72088142 L4.48807975,2.14270724 C4.25303252,1.97481635 3.91725079,1.97481635 3.68220357,2.20986358 C3.48073452,2.44491081 3.44715634,2.78069254 3.64862539,3.01573976 L3.64862539,3.01573976 L5.12606504,4.59391396 L3.98440714,4.59391396 C3.64862539,4.59391396 3.38,4.86253935 3.38,5.1983211 C3.38,5.53410285 3.64862539,5.80272823 3.98440714,5.80272823 L3.98440714,5.80272823 L5.39469045,5.80272823 L5.39469045,6.81007346 L3.98440714,6.81007346 C3.64862539,6.81007346 3.38,7.07869885 3.38,7.41448059 C3.38,7.75026234 3.64862539,8.01888773 3.98440714,8.01888773 L3.98440714,8.01888773 L5.39469045,8.01888773 L5.39469045,9.39559286 C5.39469045,9.73137461 5.66331584,10 5.99909759,10 C6.33487934,10 6.60350472,9.73137461 6.60350472,9.39559286 L6.60350472,9.39559286 L6.60350472,8.01888773 L8.01378804,8.01888773 C8.34956979,8.01888773 8.61819517,7.75026234 8.61819517,7.41448059 C8.61819517,7.07869885 8.34956979,6.81007346 8.01378804,6.81007346 L8.01378804,6.81007346 L6.60350472,6.81007346 L6.60350472,5.80272823 L8.01378804,5.80272823 C8.34956979,5.80272823 8.61819517,5.53410285 8.61819517,5.1983211 C8.61819517,4.86253935 8.34956979,4.59391396 8.01378804,4.59391396 L8.01378804,4.59391396 L6.80497377,4.59391396 L8.48388247,3.01573976 C8.7189297,2.78069255 8.7189297,2.41133265 8.48388247,2.17628542 Z" id="path-2"></path>
        <filter x="-57.2%" y="-35.8%" width="214.3%" height="200.3%" filterUnits="objectBoundingBox" id="filter-3">
            <feOffset dx="0" dy="2" in="SourceAlpha" result="shadowOffsetOuter1"></feOffset>
            <feGaussianBlur stdDeviation="2" in="shadowOffsetOuter1" result="shadowBlurOuter1"></feGaussianBlur>
            <feColorMatrix values="0 0 0 0 0.182492841   0 0 0 0 0.341676236   0 0 0 0 0.660043025  0 0 0 0.5 0" type="matrix" in="shadowBlurOuter1"></feColorMatrix>
        </filter>
    </defs>
    <g id="控件" stroke="none" stroke-width="1" fill="none" fill-rule="evenodd">
        <g id="icon_offerlist">
            <circle id="椭圆形" fill="url(#linearGradient-1)" cx="12" cy="12" r="12"></circle>
            <g id="报价-(1)" transform="translate(6.000000, 5.000000)" fill-rule="nonzero">
                <g id="形状">
                    <use fill="black" fill-opacity="1" filter="url(#filter-3)" xlink:href="#path-2"></use>
                    <use fill="#FFFFFF" xlink:href="#path-2"></use>
                </g>
            </g>
        </g>
    </g>
</svg>