<?xml version="1.0" encoding="UTF-8"?>
<svg width="32px" height="32px" viewBox="0 0 32 32" version="1.1" xmlns="http://www.w3.org/2000/svg" xmlns:xlink="http://www.w3.org/1999/xlink">
    <title>69018C9E-E2CF-4201-BD60-26399C5B0F31</title>
    <g id="控件" stroke="none" stroke-width="1" fill="none" fill-rule="evenodd">
        <g id="icon_zj_sel">
            <g id="icon_zj"></g>
            <circle id="椭圆形" fill="#4572CC" cx="16" cy="16" r="16"></circle>
            <g id="足迹" transform="translate(8.000000, 8.000000)" fill-rule="nonzero">
                <rect id="矩形" fill="#000000" opacity="0" x="0" y="0" width="16" height="16"></rect>
                <path d="M14.1876525,1.06989702 C13.5202127,0.385530829 12.6046651,-0.000265989334 11.648719,1.14778521e-06 C11.1258633,-0.00226376327 10.6104409,0.123850231 10.1477142,0.367299063 C8.81246346,1.12375038 8.23722689,2.74734707 8.79840678,4.17569939 C9.24117127,5.26058051 9.51059708,6.40833443 9.59681356,7.57691227 L9.59681356,7.83240244 L15.1377566,7.28150177 L15.185661,3.64076684 C15.2136275,2.68423224 14.8536856,1.75702189 14.1876525,1.06989702 Z M9.30140305,8.90226753 C8.74103717,9.84861583 8.92097897,11.0582246 9.73254272,11.8004841 C10.6677396,12.6223588 11.995308,12.8258307 13.1337262,12.321772 C14.2721445,11.8177133 15.0138554,10.6980244 15.0339637,9.4531682 L15.0339637,8.07192447 L9.34930745,8.63879328 C9.35729152,8.72661803 9.34132339,8.7825065 9.30140305,8.90226753 L9.30140305,8.90226753 Z M5.85228577,3.7525438 C5.38955908,3.50909497 4.87413668,3.38298098 4.35128102,3.3852459 C3.39707741,3.38713287 2.48391531,3.77359145 1.81826599,4.4572719 C1.15261668,5.14095235 0.790696954,6.06411505 0.814338984,7.01802753 L0.918131875,10.6587624 L6.45109084,11.1777268 L6.45109084,10.9222367 C6.52610653,9.76976198 6.77927853,8.63587464 7.20159322,7.56094414 C7.76277311,6.13259181 7.18753655,4.50899511 5.85228577,3.7525438 Z M6.61875627,12.024038 L0.9341,11.4571692 L0.9341,12.838413 C0.946746215,14.0965278 1.69690097,15.2299747 2.85002504,15.7332815 C4.0031491,16.2365883 5.34432493,16.0159493 6.27544136,15.1697607 C7.0870051,14.4275012 7.26694689,13.2178924 6.70658102,12.2715441 C6.66666067,12.1996875 6.65069255,12.1118628 6.61875627,12.024038 L6.61875627,12.024038 Z" id="形状" fill="#FFFFFF"></path>
            </g>
        </g>
    </g>
</svg>