<?xml version="1.0" encoding="UTF-8"?>
<svg width="24px" height="24px" viewBox="0 0 24 24" version="1.1" xmlns="http://www.w3.org/2000/svg" xmlns:xlink="http://www.w3.org/1999/xlink">
    <title>8F91CBD3-3A18-43C6-98EB-61A18E4DB825</title>
    <g id="控件" stroke="none" stroke-width="1" fill="none" fill-rule="evenodd">
        <g id="icon_bronze">
            <rect id="矩形备份-2" fill="#D8D8D8" opacity="0" x="0" y="0" width="24" height="24"></rect>
            <g id="铜牌" transform="translate(3.000000, 0.000000)" fill-rule="nonzero">
                <polygon id="路径" fill="#F0C789" points="8.36506329 3.13167895 9.54118671 3.13167895 9.54118671 7.43661973 8.36506329 7.43661973 8.36506329 3.13167895"></polygon>
                <polygon id="路径" fill="#F0C789" points="15.2551147 21.4030852 11.463476 21.174156 8.92593966 23.9982115 6.40593073 21.1580595 2.6121458 21.3619495 2.84071723 17.5756763 0.0130847578 15.0413593 2.8568138 12.5249273 2.65167183 8.73686564 6.44331056 8.96400626 8.9808469 6.14173934 11.5008558 8.98010283 15.2946408 8.77621284 15.0660693 12.5642745 17.8938806 15.0985916 15.0501516 17.6150235"></polygon>
                <path d="M4.44268458,15.2649229 C4.44268458,17.864032 6.54967879,19.9710262 9.14878787,19.9710262 C11.747897,19.9710262 13.8548912,17.864032 13.8548912,15.2649229 C13.8548912,12.6658138 11.747897,10.5588196 9.14878787,10.5588196 C6.54967879,10.5588196 4.44268458,12.6658138 4.44268458,15.2649229 Z" id="路径" fill="#D3AC6B"></path>
                <polygon id="路径" fill="#F0C789" points="11.4008782 18.4484686 9.25699266 17.8582607 7.11185515 18.4448916 7.01295061 16.2271406 5.7906837 14.3706685 7.87340222 13.5926671 9.26307359 11.8578135 10.6491679 13.5944556 12.7302768 14.3778225 11.5044328 16.2307176"></polygon>
                <polygon id="路径" fill="#D3AC6B" points="4.0526108 0.00178851562 13.4601672 0.00178851562 13.4601672 4.30494075 4.0526108 4.30494075"></polygon>
                <polygon id="路径" fill="#FFFFFF" points="5.22909192 0.00178851562 6.40503647 0.00178851562 6.40503647 4.30494075 5.22909192 4.30494075"></polygon>
                <polygon id="路径" fill="#FFFFFF" points="11.1091724 0.00178851562 12.285117 0.00178851562 12.285117 4.30494075 11.1091724 4.30494075"></polygon>
            </g>
        </g>
    </g>
</svg>