<?xml version="1.0" encoding="UTF-8"?>
<svg width="40px" height="40px" viewBox="0 0 40 40" version="1.1" xmlns="http://www.w3.org/2000/svg" xmlns:xlink="http://www.w3.org/1999/xlink">
    <title>14D89CD2-1D5F-4A7A-B6A3-92C62A83F408</title>
    <defs>
        <linearGradient x1="50%" y1="0%" x2="50%" y2="100%" id="linearGradient-1">
            <stop stop-color="#FFFFFF" stop-opacity="0.8" offset="0%"></stop>
            <stop stop-color="#FFFFFF" stop-opacity="0.1" offset="100%"></stop>
        </linearGradient>
    </defs>
    <g id="控件" stroke="none" stroke-width="1" fill="none" fill-rule="evenodd">
        <g id="icon_average">
            <rect id="矩形" fill="#D8D8D8" opacity="0" x="0" y="0" width="40" height="40"></rect>
            <g id="件单价" transform="translate(2.000000, 2.000000)" fill="url(#linearGradient-1)">
                <path d="M3.40734375,0.03234375 C1.54752404,0.03234375 0.0334254808,1.54647837 0.0334254808,3.4019351 L0.0334254808,13.5019111 C0.0334254808,15.3529687 1.10552885,17.9436058 2.4227524,19.2520312 L18.1021875,34.8964904 C19.415012,36.2093149 21.5592909,36.2093149 22.8721154,34.8964904 L34.9719231,22.8272957 C36.2847837,21.5144712 36.2847837,19.3745913 34.9719231,18.0617668 L19.292488,2.41730769 C17.9796274,1.10448317 15.3846635,0.03234375 13.5335697,0.03234375 L3.40734375,0.03234375 Z M11.1792188,16.6526683 C8.13789663,16.6526683 5.66978365,14.1889183 5.66978365,11.1563221 C5.66978365,8.12372596 8.14225962,5.65997596 11.1792548,5.65997596 C14.220613,5.65997596 16.688726,8.1236899 16.688726,11.1563221 C16.6799639,14.1889183 14.21625,16.6526683 11.1792548,16.6526683 L11.1792188,16.6526683 Z" id="形状"></path>
            </g>
        </g>
    </g>
</svg>