<?xml version="1.0" encoding="UTF-8"?>
<svg width="24px" height="24px" viewBox="0 0 24 24" version="1.1" xmlns="http://www.w3.org/2000/svg" xmlns:xlink="http://www.w3.org/1999/xlink">
    <title>3174AD36-90F4-48BC-9A90-B733FF24A344</title>
    <defs>
        <linearGradient x1="50%" y1="0%" x2="50%" y2="100%" id="linearGradient-1">
            <stop stop-color="#90B5FF" offset="0%"></stop>
            <stop stop-color="#4572CC" offset="100%"></stop>
        </linearGradient>
        <path d="M9.57499034,1.60053281 C9.62032594,1.67765367 9.65576959,1.76017652 9.68048485,1.84615384 L12.0237416,10.0619381 C12.1153359,10.3834306 12.0507567,10.7292729 11.8493151,10.9960468 C11.6478736,11.2628207 11.3329192,11.4196042 10.9986334,11.4195138 L7.55887313,11.4195138 L7.79277256,12.351382 C7.85677396,12.6071941 7.72402058,12.8713416 7.48055145,12.9726274 L7.42354179,12.9928738 L4.51764769,13.8304362 L4.49793406,13.8357642 C4.23552144,13.9005185 3.96619711,13.7585278 3.87136063,13.5054279 L3.85271262,13.446287 L3.35294573,11.418981 L1.96127073,11.418981 C1.46756072,11.4190038 1.0384879,11.0798908 0.924440896,10.5995338 L0.0304015963,6.82730603 C-0.0777926839,6.37133224 0.124611257,5.8981914 0.529102895,5.66153846 L8.11671529,1.21904762 C8.62461286,0.921912424 9.27721773,1.09269645 9.57445755,1.60053281 L9.57499034,1.60053281 Z M13.6775545,7.22157842 L13.7111209,7.24129205 L15.6292028,8.44808525 C15.8654774,8.59684403 15.9468408,8.90277059 15.815683,9.14925074 L15.7757229,9.22384283 C15.7063227,9.35473781 15.5855544,9.45082544 15.442412,9.48903719 C15.2992696,9.52724893 15.1466802,9.50413387 15.0212774,9.42524142 L13.1037283,8.21844821 C12.8674537,8.06968944 12.7860902,7.76376288 12.9172481,7.51728271 L12.9572081,7.44215785 C13.0952504,7.18237136 13.4177197,7.08362707 13.6775545,7.22157842 L13.6775545,7.22157842 Z M8.87702165,5.01152181 C8.81071062,4.81887415 8.60088739,4.71634689 8.40815717,4.78241759 C8.2051231,4.85206337 8.0933796,5.06966914 8.15507692,5.27525808 L9.27395804,9.01445222 L9.27822044,9.02883782 C9.34453146,9.22148549 9.5543547,9.32401275 9.74708492,9.25794206 C9.95033179,9.18851349 10.062344,8.97084262 10.000698,8.76510157 L8.88181686,5.02537462 C8.88048683,5.02072957 8.87906575,5.01611108 8.87755445,5.01152181 L8.87702165,5.01152181 Z M15.9313007,3.9992008 C15.93358,4.00625953 15.9357117,4.01336508 15.9376943,4.02051282 L15.9659327,4.12014652 C16.0439808,4.39492679 15.8914466,4.68236789 15.6201452,4.77176157 L13.5571415,5.45161506 C13.4119711,5.49954365 13.2535289,5.48615571 13.1184591,5.41454756 C12.9833892,5.34293942 12.8833905,5.21931325 12.8415904,5.07226107 C12.7526127,4.75790875 12.9268385,4.42863803 13.2374612,4.32634033 L15.2583736,3.66033966 C15.392615,3.61607576 15.5389439,3.62696936 15.6651513,3.69062265 C15.7913586,3.75427593 15.8870998,3.86547147 15.9313007,3.9997336 L15.9313007,3.9992008 Z M13.5150503,0.0847152868 L13.5502151,0.1060273 C13.670675,0.181640316 13.7559038,0.302276225 13.7869262,0.441076476 C13.8179486,0.579876727 13.7921893,0.725318937 13.7153833,0.845021645 L12.658307,2.4951049 C12.5006825,2.7414571 12.1739424,2.81470013 11.9262391,2.65920745 L11.8916071,2.63736264 C11.7711472,2.56174962 11.6859184,2.44111372 11.654896,2.30231347 C11.6238736,2.16351322 11.6496329,2.01807101 11.7264389,1.8983683 L12.7829823,0.247752246 C12.9407578,0.00191137282 13.2670629,-0.0710497639 13.5145175,0.0841824811 L13.5150503,0.0847152868 Z" id="path-2"></path>
        <filter x="-43.8%" y="-36.1%" width="187.6%" height="201.1%" filterUnits="objectBoundingBox" id="filter-3">
            <feOffset dx="0" dy="2" in="SourceAlpha" result="shadowOffsetOuter1"></feOffset>
            <feGaussianBlur stdDeviation="2" in="shadowOffsetOuter1" result="shadowBlurOuter1"></feGaussianBlur>
            <feColorMatrix values="0 0 0 0 0.182492841   0 0 0 0 0.341676236   0 0 0 0 0.660043025  0 0 0 0.5 0" type="matrix" in="shadowBlurOuter1"></feColorMatrix>
        </filter>
    </defs>
    <g id="控件" stroke="none" stroke-width="1" fill="none" fill-rule="evenodd">
        <g id="icon_acticity">
            <circle id="椭圆形" fill="url(#linearGradient-1)" cx="12" cy="12" r="12"></circle>
            <g id="活动" transform="translate(4.000000, 5.000000)" fill-rule="nonzero">
                <g id="形状">
                    <use fill="black" fill-opacity="1" filter="url(#filter-3)" xlink:href="#path-2"></use>
                    <use fill="#FFFFFF" xlink:href="#path-2"></use>
                </g>
            </g>
        </g>
    </g>
</svg>