<?xml version="1.0" encoding="UTF-8"?>
<svg width="40px" height="40px" viewBox="0 0 40 40" version="1.1" xmlns="http://www.w3.org/2000/svg" xmlns:xlink="http://www.w3.org/1999/xlink">
    <title>7FDFE3F6-92AD-4FDA-AF3E-E9D1BA236CA3</title>
    <defs>
        <linearGradient x1="50%" y1="0%" x2="50%" y2="100%" id="linearGradient-1">
            <stop stop-color="#FFFFFF" stop-opacity="0.8" offset="0%"></stop>
            <stop stop-color="#FFFFFF" stop-opacity="0.1" offset="100%"></stop>
        </linearGradient>
    </defs>
    <g id="控件" stroke="none" stroke-width="1" fill="none" fill-rule="evenodd">
        <g id="icon_items">
            <rect id="矩形" fill="#D8D8D8" opacity="0" x="0" y="0" width="40" height="40"></rect>
            <g id="项目" transform="translate(2.000000, 3.000000)" fill="url(#linearGradient-1)">
                <path d="M35.946,31.2879375 L35.946,7.4559375 C35.946,4.5939375 33.3,4.8099375 33.3,4.8099375 L19.404,4.8099375 C18.558,4.8099375 18.018,4.3779375 18.018,4.3779375 C18.018,4.3779375 17.388,3.3159375 16.218,1.6239375 C15.174,-0.2840625 13.788,0.0399375 13.788,0.0399375 L3.276,0.0399375 C0,0.0399375 0,3.0999375 0,3.0999375 L0,31.0539375 C0,34.5459375 2.646,34.1319375 2.646,34.1319375 L33.624,34.1319375 C36.378,34.1499375 35.946,31.2879375 35.946,31.2879375 Z M8.604,25.2399375 C7.434,25.2399375 6.588,24.3939375 6.588,23.2239375 C6.588,22.0539375 7.434,21.2079375 8.604,21.2079375 C9.774,21.2079375 10.62,22.1799375 10.62,23.2239375 C10.62,24.2859375 9.774,25.2399375 8.604,25.2399375 Z M8.604,17.7159375 C7.434,17.7159375 6.588,16.8699375 6.588,15.6999375 C6.588,14.6379375 7.434,13.6839375 8.604,13.6839375 C9.774,13.6839375 10.62,14.6559375 10.62,15.7179375 C10.62,16.7799375 9.774,17.7159375 8.604,17.7159375 Z M28.296,25.1319375 L15.588,25.1319375 C14.526,25.1319375 13.68,24.2859375 13.68,23.2239375 C13.68,22.1619375 14.526,21.3159375 15.588,21.3159375 L28.296,21.3159375 C29.358,21.3159375 30.204,22.1619375 30.204,23.2239375 C30.204,24.2859375 29.358,25.1319375 28.296,25.1319375 Z M28.296,17.6259375 L15.588,17.6259375 C14.526,17.6259375 13.68,16.7799375 13.68,15.7179375 C13.68,14.6559375 14.526,13.8099375 15.588,13.8099375 L28.296,13.8099375 C29.358,13.8099375 30.204,14.6559375 30.204,15.7179375 C30.204,16.7799375 29.358,17.6259375 28.296,17.6259375 Z" id="形状"></path>
            </g>
        </g>
    </g>
</svg>