<?xml version="1.0" encoding="UTF-8"?>
<svg width="16px" height="16px" viewBox="0 0 16 16" version="1.1" xmlns="http://www.w3.org/2000/svg" xmlns:xlink="http://www.w3.org/1999/xlink">
    <title>5E7EAEEA-CA02-4A56-99B1-9A77E63FC383</title>
    <g id="控件" stroke="none" stroke-width="1" fill="none" fill-rule="evenodd">
        <g id="icon_born">
            <rect id="矩形" fill="#D8D8D8" opacity="0" x="0" y="0" width="16" height="16"></rect>
            <g id="生日有礼" fill-rule="nonzero">
                <rect id="矩形" fill="#292C33" opacity="0" x="0" y="0" width="16" height="16"></rect>
                <polygon id="路径" fill-opacity="0" fill="#FFFFFF" points="0.177777781 0 15.8222222 0 15.8222222 15.6444444 0.177777781 15.6444444"></polygon>
                <path d="M6.12266667,1.87733333 L6.12266667,3.60462222 L7.48693333,3.60462222 L7.48693333,1.87733333 L8.4256,1.87733333 L8.4256,3.60462222 L9.78986667,3.60462222 L9.78986667,1.87733333 L10.7285333,1.87733333 L10.7285333,3.60462222 L14.0451556,3.60462222 L14.0451556,12.816 L15.1964444,12.816 L15.1964444,13.6796444 L0.803555562,13.6796444 L0.803555562,12.8156444 L1.95484444,12.8156444 L1.95484444,3.60497778 L5.184,3.60497778 L5.184,1.87733333 L6.12266667,1.87733333 Z M13.1064889,7.99751111 L2.89351111,7.99751111 L2.89351111,12.7406222 L13.1064889,12.7406222 L13.1064889,7.99751111 Z M5.184,4.54328889 L2.89351111,4.54328889 L2.89351111,7.05884444 L13.1064889,7.05884444 L13.1064889,4.54328889 L10.7285333,4.54328889 L10.7285333,5.33155556 L9.78986667,5.33155556 L9.78986667,4.54328889 L8.4256,4.54328889 L8.4256,5.33155556 L7.48693333,5.33155556 L7.48693333,4.54328889 L6.12266667,4.54328889 L6.12266667,5.33155556 L5.184,5.33155556 L5.184,4.54328889 Z" id="形状" fill="#7A8599"></path>
            </g>
        </g>
    </g>
</svg>