<?xml version="1.0" encoding="UTF-8"?>
<svg width="16px" height="16px" viewBox="0 0 16 16" version="1.1" xmlns="http://www.w3.org/2000/svg" xmlns:xlink="http://www.w3.org/1999/xlink">
    <title>E4547CFD-7D88-4AB3-9938-DD5316E5E315</title>
    <g id="控件" stroke="none" stroke-width="1" fill="none" fill-rule="evenodd">
        <g id="icon_switch" fill-rule="nonzero">
            <g>
                <rect id="矩形" fill="#000000" opacity="0" x="0" y="0" width="16" height="16"></rect>
                <path d="M13.846875,9.45 L2.153125,9.45 C1.8078125,9.45 1.528125,9.7296875 1.528125,10.075 C1.528125,10.20625 1.56875,10.328125 1.6375,10.428125 C1.6671875,10.4984375 1.7125,10.5640625 1.76875,10.621875 L4.5234375,13.375 C4.6453125,13.496875 4.8046875,13.5578125 4.965625,13.5578125 C5.1265625,13.5578125 5.2859375,13.496875 5.4078125,13.375 C5.6515625,13.13125 5.6515625,12.7359375 5.4078125,12.490625 L3.6140625,10.7 L13.8453125,10.7 C14.190625,10.7 14.4703125,10.4203125 14.4703125,10.075 C14.4703125,9.7296875 14.1921875,9.45 13.846875,9.45 L13.846875,9.45 Z M2.153125,6.55 L13.846875,6.55 C14.1921875,6.55 14.471875,6.2703125 14.471875,5.925 C14.471875,5.79375 14.43125,5.671875 14.3625,5.571875 C14.340625,5.5203125 14.309375,5.4703125 14.271875,5.4234375 L12.01875,2.6703125 C11.8,2.403125 11.40625,2.3640625 11.1390625,2.5828125 C10.871875,2.8015625 10.8328125,3.1953125 11.0515625,3.4625 L12.55625,5.3 L2.153125,5.3 C1.8078125,5.3 1.528125,5.5796875 1.528125,5.925 C1.528125,6.2703125 1.8078125,6.55 2.153125,6.55 L2.153125,6.55 Z" id="形状" fill="#7A8599"></path>
            </g>
        </g>
    </g>
</svg>