<?xml version="1.0" encoding="UTF-8"?>
<svg width="24px" height="24px" viewBox="0 0 24 24" version="1.1" xmlns="http://www.w3.org/2000/svg" xmlns:xlink="http://www.w3.org/1999/xlink">
    <title>A75F9E0E-0669-4525-BF75-9930CC3EAB53</title>
    <defs>
        <linearGradient x1="50%" y1="0%" x2="50%" y2="100%" id="linearGradient-1">
            <stop stop-color="#90B5FF" offset="0%"></stop>
            <stop stop-color="#4572CC" offset="100%"></stop>
        </linearGradient>
        <circle id="path-2" cx="12" cy="12" r="12"></circle>
        <filter x="-29.2%" y="-20.8%" width="158.3%" height="158.3%" filterUnits="objectBoundingBox" id="filter-3">
            <feOffset dx="0" dy="2" in="SourceAlpha" result="shadowOffsetOuter1"></feOffset>
            <feGaussianBlur stdDeviation="2" in="shadowOffsetOuter1" result="shadowBlurOuter1"></feGaussianBlur>
            <feColorMatrix values="0 0 0 0 0.209891553   0 0 0 0 0.364565383   0 0 0 0 0.673913043  0 0 0 0.3 0" type="matrix" in="shadowBlurOuter1"></feColorMatrix>
        </filter>
        <path d="M5.96773415,1.84189241 L7.89268059,3.80185568 L9.99785354,3.80185568 L6.49396618,0.234056471 C6.35575294,0.0919692165 6.16595547,0.0118115678 5.96773416,0.0118115678 C5.76951286,0.0118115678 5.57971538,0.0919692165 5.44150215,0.234056471 L1.93785966,3.80210055 L4.04278772,3.80210055 L5.96773415,1.84213728 L5.96773415,1.84189241 Z M0.012913226,4.55973753 L0.012913226,12.1390458 L5.96773415,15.9286999 L11.9228,12.1390458 L11.9228,4.55973753 L0.012913226,4.55973753 Z M8.20097566,12.1390458 L5.96773415,10.6232821 L3.73449266,12.1390458 L4.47890649,9.86515533 L2.99032369,8.34939165 L5.2235652,8.34939165 L5.96797904,6.07550123 L6.712148,8.34939165 L8.9453895,8.34939165 L7.45656184,9.86515533 L8.20097566,12.1390458 Z" id="path-4"></path>
        <filter x="-58.8%" y="-31.4%" width="217.5%" height="188.0%" filterUnits="objectBoundingBox" id="filter-5">
            <feOffset dx="0" dy="2" in="SourceAlpha" result="shadowOffsetOuter1"></feOffset>
            <feGaussianBlur stdDeviation="2" in="shadowOffsetOuter1" result="shadowBlurOuter1"></feGaussianBlur>
            <feColorMatrix values="0 0 0 0 0.182492841   0 0 0 0 0.341676236   0 0 0 0 0.660043025  0 0 0 0.5 0" type="matrix" in="shadowBlurOuter1"></feColorMatrix>
        </filter>
    </defs>
    <g id="控件" stroke="none" stroke-width="1" fill="none" fill-rule="evenodd">
        <g id="icon_features">
            <g id="椭圆形">
                <use fill="black" fill-opacity="1" filter="url(#filter-3)" xlink:href="#path-2"></use>
                <use fill="url(#linearGradient-1)" fill-rule="evenodd" xlink:href="#path-2"></use>
            </g>
            <g id="系统特点" transform="translate(6.000000, 4.000000)" fill-rule="nonzero">
                <g id="形状">
                    <use fill="black" fill-opacity="1" filter="url(#filter-5)" xlink:href="#path-4"></use>
                    <use fill="#FFFFFF" xlink:href="#path-4"></use>
                </g>
            </g>
        </g>
    </g>
</svg>