<?xml version="1.0" encoding="UTF-8"?>
<svg width="16px" height="16px" viewBox="0 0 16 16" version="1.1" xmlns="http://www.w3.org/2000/svg" xmlns:xlink="http://www.w3.org/1999/xlink">
    <title>61ACA53C-0858-454D-A613-592F7642BC9D</title>
    <g id="控件" stroke="none" stroke-width="1" fill="none" fill-rule="evenodd">
        <g id="icon_more" fill-rule="nonzero">
            <g>
                <rect id="矩形" fill="#292C33" opacity="0" x="0" y="0" width="16" height="16"></rect>
                <path d="M6,1.5 L3,1.5 C2.17157288,1.5 1.5,2.17157288 1.5,3 L1.5,6 C1.5,6.82842712 2.17157288,7.5 3,7.5 L6,7.5 C6.82842712,7.5 7.5,6.82842712 7.5,6 L7.5,3 C7.5,2.17157288 6.82842712,1.5 6,1.5 Z M3,2.5 L6,2.5 C6.27614237,2.5 6.5,2.72385763 6.5,3 L6.5,6 C6.5,6.27614237 6.27614237,6.5 6,6.5 L3,6.5 C2.72385763,6.5 2.5,6.27614237 2.5,6 L2.5,3 C2.5,2.72385763 2.72385763,2.5 3,2.5 Z" id="矩形" fill="#7A8599"></path>
                <path d="M11.5,1.5 C9.84314575,1.5 8.5,2.84314575 8.5,4.5 C8.5,6.15685425 9.84314575,7.5 11.5,7.5 C13.1568542,7.5 14.5,6.15685425 14.5,4.5 C14.5,2.84314575 13.1568542,1.5 11.5,1.5 Z M11.5,2.5 C12.6045695,2.5 13.5,3.3954305 13.5,4.5 C13.5,5.6045695 12.6045695,6.5 11.5,6.5 C10.3954305,6.5 9.5,5.6045695 9.5,4.5 C9.5,3.3954305 10.3954305,2.5 11.5,2.5 Z" id="矩形备份-2" fill="#7A8599"></path>
                <path d="M6,8.5 L3,8.5 C2.17157288,8.5 1.5,9.17157288 1.5,10 L1.5,13 C1.5,13.8284271 2.17157288,14.5 3,14.5 L6,14.5 C6.82842712,14.5 7.5,13.8284271 7.5,13 L7.5,10 C7.5,9.17157288 6.82842712,8.5 6,8.5 Z M3,9.5 L6,9.5 C6.27614237,9.5 6.5,9.72385763 6.5,10 L6.5,13 C6.5,13.2761424 6.27614237,13.5 6,13.5 L3,13.5 C2.72385763,13.5 2.5,13.2761424 2.5,13 L2.5,10 C2.5,9.72385763 2.72385763,9.5 3,9.5 Z" id="矩形备份" fill="#7A8599"></path>
                <path d="M13,8.5 L10,8.5 C9.17157288,8.5 8.5,9.17157288 8.5,10 L8.5,13 C8.5,13.8284271 9.17157288,14.5 10,14.5 L13,14.5 C13.8284271,14.5 14.5,13.8284271 14.5,13 L14.5,10 C14.5,9.17157288 13.8284271,8.5 13,8.5 Z M10,9.5 L13,9.5 C13.2761424,9.5 13.5,9.72385763 13.5,10 L13.5,13 C13.5,13.2761424 13.2761424,13.5 13,13.5 L10,13.5 C9.72385763,13.5 9.5,13.2761424 9.5,13 L9.5,10 C9.5,9.72385763 9.72385763,9.5 10,9.5 Z" id="矩形备份-3" fill="#7A8599"></path>
            </g>
        </g>
    </g>
</svg>