<?xml version="1.0" encoding="UTF-8"?>
<svg width="20px" height="20px" viewBox="0 0 20 20" version="1.1" xmlns="http://www.w3.org/2000/svg" xmlns:xlink="http://www.w3.org/1999/xlink">
    <title>A4C12751-91DD-43C6-9CC2-BDD871628318</title>
    <g id="控件" stroke="none" stroke-width="1" fill="none" fill-rule="evenodd">
        <g id="icon_new">
            <rect id="矩形" fill="#D8D8D8" opacity="0" x="0" y="0" width="20" height="20"></rect>
            <g id="上架" transform="translate(1.000000, 1.000000)" fill="#42CAA6" fill-rule="nonzero">
                <path d="M17.1105207,18 L0.908607864,18 C0.420828905,18 0,17.5887354 0,17.0913921 L0,11.5536663 C0,11.4197662 0,11.3432519 0.0765143464,11.2093518 L2.29543039,5.04038257 C2.4293305,4.76301807 2.78320935,4.48565356 3.12752391,4.48565356 L7.34537726,4.48565356 L7.34537726,6.22635494 L3.67268863,6.22635494 L2.08501594,10.6546227 L4.79171095,10.6546227 C5.2794899,10.6546227 5.62380446,11.0658874 5.62380446,11.5632306 L5.62380446,12.4718385 L12.3283741,12.4718385 L12.3283741,11.5632306 C12.3283741,11.0754516 12.6726886,10.6546227 13.1604676,10.6546227 L15.9245484,10.6546227 L14.3273114,6.29330499 L10.7311371,6.29330499 L10.7311371,4.49521785 L14.9489904,4.49521785 C15.293305,4.49521785 15.6471838,4.70563231 15.7045696,5.04994687 L17.9234857,11.218916 C18,11.2954304 18,11.4293305 18,11.5632306 L18,17.1009564 C18,17.5887354 17.5887354,18 17.1105207,18 Z M6.22635494,2.90754516 C6.22635494,2.69713071 6.30286929,2.41976621 6.50371945,2.2858661 L8.4357067,0.210414453 C8.5696068,0.0765143464 8.78002125,0 8.99043571,0 C9.20085016,0 9.40170032,0.0765143464 9.61211477,0.277364506 L11.544102,2.35281615 C11.6780021,2.48671626 11.7545165,2.69713071 11.7545165,2.90754516 C11.7545165,3.39532412 11.4102019,3.81615303 10.922423,3.81615303 C10.7120085,3.81615303 10.5111583,3.73963868 10.3007439,3.53878852 L9.74601488,2.98405951 L9.74601488,8.45483528 C9.74601488,8.94261424 9.40170032,9.36344315 8.91392136,9.36344315 C8.4261424,9.36344315 8.08182784,8.95217853 8.08182784,8.45483528 L8.08182784,2.97449522 L7.59404888,3.52922423 C7.46014878,3.66312434 7.24973433,3.80658874 6.97236982,3.80658874 C6.58023379,3.80658874 6.22635494,3.39532412 6.22635494,2.90754516 L6.22635494,2.90754516 Z" id="形状"></path>
            </g>
        </g>
    </g>
</svg>