<?xml version="1.0" encoding="UTF-8"?>
<svg width="100px" height="100px" viewBox="0 0 100 100" version="1.1" xmlns="http://www.w3.org/2000/svg" xmlns:xlink="http://www.w3.org/1999/xlink">
    <title>CFD73616-7D53-4BD0-8915-E88F4A94CECC</title>
    <g id="控件" stroke="none" stroke-width="1" fill="none" fill-rule="evenodd">
        <g id="编组-15">
            <path d="M51.0529376,18.5945734 C57.0529376,15.9279067 60.0529376,13.5945734 60.0529376,11.5945734 C60.0529376,8.59457336 37.0529376,9.59457336 25.0529376,16.5945734 C13.0529376,23.5945734 7.05293763,32.5945734 12.0529376,34.5945734 C17.0529376,36.5945734 31.0529376,34.5945734 29.0529376,37.5945734 C27.0529376,40.5945734 7.05293763,36.5945734 3.05293763,50.5945734 C1.14511302,57.2719595 0.969243531,73.5204548 10.0529376,79.5945734 C18.3590828,85.1487576 35.1565608,83.0275041 48.0529376,81.5945734 C61.9663509,80.0486386 90.0529376,88.5945734 95.0529376,70.5945734 C100.052938,52.5945734 96.0529376,36.5945734 86.0529376,31.5945734 C79.386271,28.26124 71.7196043,28.5945734 63.0529376,32.5945734 C75.7196043,25.9279067 81.7196043,21.26124 81.0529376,18.5945734 C80.386271,15.9279067 70.386271,15.9279067 51.0529376,18.5945734 Z" id="路径" fill="#4572CC" opacity="0.100000001"></path>
            <g id="保证公平公正" transform="translate(13.000000, 20.000000)">
                <path d="M50,57 L24,57 L24,63 L50,63 L50,57 Z M48,59 L48,61 L26,61 L26,59 L48,59 Z" id="矩形" fill="#2E384D" fill-rule="nonzero"></path>
                <path d="M62,2 L62,7 L12,7 L12,2 L62,2 Z M37,2.5 C36.0680872,2.5 35.2850418,3.13737692 35.0630137,3.99998077 L14,4 L14,5 L35.0632721,5.00102216 C35.2856488,5.86311707 36.0684484,6.5 37,6.5 C37.9315516,6.5 38.7143512,5.86311707 38.9367279,5.00102216 L60,5 L60,4 L38.9369863,3.99998077 C38.7149582,3.13737692 37.9319128,2.5 37,2.5 Z" id="形状结合" fill="#2E384D" fill-rule="nonzero"></path>
                <rect id="矩形" fill="#FFFFFF" x="14" y="4" width="46" height="1"></rect>
                <path d="M39.5,7 L34.5,7 L34.5,59 L39.5,59 L39.5,7 Z M37.5,8 L37.5,57 L36.5,57 L36.5,8 L37.5,8 Z" id="矩形" fill="#2E384D" fill-rule="nonzero"></path>
                <rect id="矩形" fill="#FFFFFF" x="36.5" y="9" width="1" height="48"></rect>
                <rect id="矩形" fill="#FFFFFF" x="26" y="59" width="22" height="2"></rect>
                <path d="M37,0.5 C39.209139,0.5 41,2.290861 41,4.5 C41,6.709139 39.209139,8.5 37,8.5 C34.790861,8.5 33,6.709139 33,4.5 C33,2.290861 34.790861,0.5 37,0.5 Z M37,2.5 C35.8954305,2.5 35,3.3954305 35,4.5 C35,5.6045695 35.8954305,6.5 37,6.5 C38.1045695,6.5 39,5.6045695 39,4.5 C39,3.3954305 38.1045695,2.5 37,2.5 Z" id="椭圆形" fill="#2E384D" fill-rule="nonzero"></path>
                <circle id="椭圆形" fill="#FFFFFF" cx="37" cy="4.5" r="2"></circle>
                <path d="M0,36 C2,41.3333333 7.33333333,44 16,44 C24.6666667,44 30,41.3333333 32,36 L0,36 Z" id="路径-3备份" fill="#699BFF"></path>
                <path d="M42,36 C44,41.3333333 49.3333333,44 58,44 C66.6666667,44 72,41.3333333 74,36 L42,36 Z" id="路径-3备份-2" fill="#699BFF"></path>
                <polygon id="路径-4" fill="#FFFFFF" points="58 10 44 36 72 36"></polygon>
                <polygon id="路径-4" fill="#FFFFFF" points="16 9 2 35 30 35"></polygon>
                <path d="M16,6 L32,36 C30,41.3333333 24.6666667,44 16,44 C7.48809524,44 2.19153912,41.4277211 0.110331633,36.2831633 L0,36 L16,6 Z M29.277598,37.0011553 L2.72217993,37.0008097 C4.80157634,40.2361827 8.98671943,41.9265687 15.5636447,41.99766 L16,42 C22.8283828,42 27.1524999,40.3072856 29.277598,37.0011553 Z M16,10.249 L2.799,35 L29.2,35 L16,10.249 Z" id="形状结合" fill="#2E384D" fill-rule="nonzero"></path>
                <path d="M58,6 L74,36 C72,41.3333333 66.6666667,44 58,44 C49.4880952,44 44.1915391,41.4277211 42.1103316,36.2831633 L42,36 L58,6 Z M71.277598,37.0011553 L44.7221799,37.0008097 C46.8015763,40.2361827 50.9867194,41.9265687 57.5636447,41.99766 L58,42 C64.8283828,42 69.1524999,40.3072856 71.277598,37.0011553 Z M58,10.249 L44.799,35 L71.2,35 L58,10.249 Z" id="形状结合备份" fill="#2E384D" fill-rule="nonzero"></path>
            </g>
        </g>
    </g>
</svg>