<?xml version="1.0" encoding="UTF-8"?>
<svg width="32px" height="32px" viewBox="0 0 32 32" version="1.1" xmlns="http://www.w3.org/2000/svg" xmlns:xlink="http://www.w3.org/1999/xlink">
    <title>C2E5FDB8-243C-4B02-B3A6-42B91F9CC8A3</title>
    <g id="控件" stroke="none" stroke-width="1" fill="none" fill-rule="evenodd">
        <g id="icon_cn">
            <g id="中国" fill-rule="nonzero">
                <path d="M0.477466534,12.1952381 C1.99567409,5.92396155 7.14925515,1.18938056 13.5264855,0.207139675 C19.9037158,-0.775101209 26.2431173,2.1892948 29.5780366,7.71307762 C32.912956,13.2368604 32.5837137,20.2273722 28.7443856,25.4132591 C24.9050575,30.599146 18.3150999,32.9545894 12.0584189,31.3773109 C7.97550953,30.375153 4.45942257,27.7890346 2.28654543,24.1899966 C0.11366829,20.5909586 -0.537269192,16.2750397 0.477466534,12.1952381" id="路径" fill="#E72D14"></path>
                <path d="M16.8549331,15.4779023 L16.1179272,16.3742608 L15.0422969,15.9957983 L15.6597884,16.9698413 L14.9227824,17.8661998 L16.0382509,17.5873327 L16.6756614,18.5633676 L16.6756614,17.408061 L17.8110489,17.1092748 L16.7354186,16.6909742 L16.8549331,15.4759104 L16.8549331,15.4779023 Z M21.1534703,13.0477747 L19.9981637,13.0477747 L19.6396203,12.0139745 L19.2810769,13.1294429 L18.1277622,13.1294429 L19.0639589,13.8066916 L18.7054155,14.9201681 L19.6416122,14.2230003 L20.5778089,14.9201681 L20.2192655,13.8046997 L21.1534703,13.0477747 L21.1534703,13.0477747 Z M19.2611578,8.79106753 L19.4404295,10.0260504 L19.9782446,8.99025833 L21.1335512,9.16953003 L20.2969499,8.35284782 L20.834765,7.31705572 L19.8388111,7.75527543 L19.0221288,6.93859322 L19.2014006,8.09389977 L18.1676004,8.61179583 L19.2631497,8.79106753 L19.2611578,8.79106753 Z M16.8768441,3.47864924 L16.1398382,4.37500777 L15.0442888,3.93678806 L15.6816993,4.93075007 L14.9247743,5.80718955 L16.0601618,5.52832245 L16.6776533,6.50435731 L16.6776533,5.34905073 L17.8528789,5.07018363 L16.7772487,4.63196389 L16.8768441,3.47665734 L16.8768441,3.47864924 Z M8.77376283,8.59187675 L7.67821349,5.22953624 L6.58266419,8.59187675 L3.06694679,8.59187675 L5.91139124,10.6634609 L4.8158419,14.0038904 L7.68418922,12.0139745 L10.5286337,14.0058823 L9.43308436,10.661469 L12.3014317,8.67155308 L8.77575476,8.59187675 L8.77376283,8.59187675 Z" id="形状" fill="#FFD700"></path>
            </g>
            <circle id="椭圆形" stroke="#FFFFFF" cx="16" cy="16" r="15.5"></circle>
        </g>
    </g>
</svg>