<?xml version="1.0" encoding="UTF-8"?>
<svg width="64px" height="64px" viewBox="0 0 64 64" version="1.1" xmlns="http://www.w3.org/2000/svg" xmlns:xlink="http://www.w3.org/1999/xlink">
    <title>0F5687B3-ED71-4E58-BD8D-391C4B0334A6</title>
    <g id="控件" stroke="none" stroke-width="1" fill="none" fill-rule="evenodd">
        <g id="icon_assets">
            <rect id="矩形" fill="#D8D8D8" opacity="0" x="16" y="16" width="32" height="32"></rect>
            <circle id="椭圆形" fill="#FFFFFF" opacity="0.200000003" cx="32" cy="32" r="32"></circle>
            <g id="资产" transform="translate(16.000000, 18.000000)" fill="#FFFFFF" fill-rule="nonzero">
                <path d="M0.0124750374,9.58083832 L30.3517964,9.58083832 C31.2336882,9.58083832 31.9486028,10.2957529 31.9486028,11.1776447 L31.9486028,27.1457086 C31.9486028,28.0276004 31.2336882,28.742515 30.3517964,28.742515 L1.60928144,28.742515 C0.727389614,28.742515 0.0124750374,28.0276004 0.0124750374,27.1457086 L0.0124750374,9.58083832 Z M1.60928144,0 L25.5613772,0 L25.5613772,6.38722556 L0.0124750374,6.38722556 L0.0124750374,1.5968064 C0.0124750374,0.714914577 0.727389614,0 1.60928144,0 Z M20.7709581,17.5648702 L20.7709581,20.758483 L25.5613772,20.758483 L25.5613772,17.5648702 L20.7709581,17.5648702 Z" id="形状"></path>
            </g>
        </g>
    </g>
</svg>