<?xml version="1.0" encoding="UTF-8"?>
<svg width="24px" height="24px" viewBox="0 0 24 24" version="1.1" xmlns="http://www.w3.org/2000/svg" xmlns:xlink="http://www.w3.org/1999/xlink">
    <title>514944A7-4CD6-4D39-BFFD-F38E0DD61707</title>
    <g id="控件" stroke="none" stroke-width="1" fill="none" fill-rule="evenodd">
        <g id="icon_gold">
            <rect id="矩形" fill="#D8D8D8" opacity="0" x="0" y="0" width="24" height="24"></rect>
            <g id="金牌" transform="translate(3.000000, 0.000000)" fill-rule="nonzero">
                <polygon id="路径" fill="#FEE157" points="15.2551147 21.4012967 11.463476 21.174156 8.92593966 23.996423 6.40593073 21.156271 2.6121458 21.3619495 2.84071723 17.5738878 0.0130847578 15.0395708 2.8568138 12.5231388 2.65167183 8.73507713 6.44331056 8.96400626 8.9808469 6.13995082 11.5008558 8.98010283 15.2946408 8.77621284 15.0660693 12.562486 17.8938806 15.096803 15.0501516 17.613235"></polygon>
                <path d="M9.14986097,10.5665079 C11.7423051,10.5709536 13.8406647,12.6754485 13.8375426,15.2678946 C13.8344136,17.8603406 11.7309855,19.9597697 9.13853825,19.9579632 C6.54609098,19.9561543 4.44559286,17.8537937 4.44608267,15.2613458 C4.44722062,14.0149974 4.94344665,12.8201535 5.8255866,11.9396906 C6.70772654,11.0592277 7.90351261,10.5652763 9.14986097,10.5665079 Z" id="路径" fill="#F0AC40"></path>
                <polygon id="路径" fill="#FCE154" points="11.4008782 18.4484686 9.25699266 17.8564722 7.11185515 18.4431031 7.01295061 16.2253521 5.7906837 14.3706685 7.87340222 13.5908786 9.26307359 11.8578135 10.6491679 13.5944556 12.7302768 14.3778225 11.5044328 16.2307176"></polygon>
                <polygon id="路径" fill="#FEE157" points="8.36506329 3.12989046 9.54118671 3.12989046 9.54118671 7.43483121 8.36506329 7.43483121 8.36506329 3.12989046"></polygon>
                <polygon id="路径" fill="#F0AC40" points="4.0526108 0 13.4601672 0 13.4601672 4.30494075 4.0526108 4.30494075"></polygon>
                <polygon id="路径" fill="#FFFFFF" points="5.22909192 0 6.40503647 0 6.40503647 4.30494075 5.22909192 4.30494075"></polygon>
                <polygon id="路径" fill="#FFFFFF" points="11.1091724 0 12.285117 0 12.285117 4.30494075 11.1091724 4.30494075"></polygon>
            </g>
        </g>
    </g>
</svg>