<?xml version="1.0" encoding="UTF-8"?>
<svg width="16px" height="16px" viewBox="0 0 16 16" version="1.1" xmlns="http://www.w3.org/2000/svg" xmlns:xlink="http://www.w3.org/1999/xlink">
    <title>7422B6D1-8FBD-44AC-8DBF-7D89B7107281</title>
    <g id="控件" stroke="none" stroke-width="1" fill="none" fill-rule="evenodd">
        <g id="icon_total">
            <rect id="矩形" fill="#D8D8D8" opacity="0" x="0" y="0" width="16" height="16"></rect>
            <path d="M11.3406038,1.5 C11.940646,1.5 12.4829532,1.85759528 12.7193214,2.40912105 L12.7193214,2.40912105 L15.3787175,8.61437875 C15.4587384,8.80109403 15.5,9.00211754 15.5,9.2052577 L15.5,9.2052577 L15.5,13 C15.5,13.8284271 14.8284271,14.5 14,14.5 L14,14.5 L2,14.5 C1.17157288,14.5 0.5,13.8284271 0.5,13 L0.5,13 L0.5,9.2052577 C0.5,9.00211754 0.541261624,8.80109403 0.621282455,8.61437875 L0.621282455,8.61437875 L3.28067861,2.40912105 C3.5170468,1.85759528 4.059354,1.5 4.65939616,1.5 L4.65939616,1.5 Z M8,11.5 C6.79067455,11.5 5.78190033,10.6413382 5.55009729,9.50043449 L1.5,9.5 L1.5,13 C1.5,13.2454599 1.67687516,13.4496084 1.91012437,13.4919443 L2,13.5 L14,13.5 C14.2761424,13.5 14.5,13.2761424 14.5,13 L14.5,13 L14.5,9.5 L10.4499027,9.50043449 C10.2180997,10.6413382 9.20932545,11.5 8,11.5 Z M11.3406038,2.5 L4.65939616,2.5 C4.4593821,2.5 4.27861304,2.61919843 4.19982364,2.80304035 L4.19982364,2.80304035 L1.758,8.5 L5.54991838,8.50044692 C5.54998505,8.50011817 5.55005178,8.49978944 5.55011858,8.49946074 L6.58581575,8.49869228 C6.53024505,8.65545115 6.5,8.82419352 6.5,9 C6.5,9.82842712 7.17157288,10.5 8,10.5 C8.82842712,10.5 9.5,9.82842712 9.5,9 C9.5,8.82419352 9.46975495,8.65545115 9.41418425,8.49869228 L10.4498814,8.49946074 L10.449,8.5 L14.241,8.5 L11.8001764,2.80304035 C11.7326426,2.64546156 11.590185,2.53537595 11.4249047,2.50713881 L11.3406038,2.5 Z" id="形状结合" fill="#7A8599" fill-rule="nonzero"></path>
        </g>
    </g>
</svg>