<?xml version="1.0" encoding="UTF-8"?>
<svg width="100px" height="100px" viewBox="0 0 100 100" version="1.1" xmlns="http://www.w3.org/2000/svg" xmlns:xlink="http://www.w3.org/1999/xlink">
    <title>CAE6A301-7EAE-47EA-8694-FD7E2D393F8C</title>
    <g id="控件" stroke="none" stroke-width="1" fill="none" fill-rule="evenodd">
        <g id="icon_01">
            <path d="M51.0529376,18.5945734 C57.0529376,15.9279067 60.0529376,13.5945734 60.0529376,11.5945734 C60.0529376,8.59457336 37.0529376,9.59457336 25.0529376,16.5945734 C13.0529376,23.5945734 7.05293763,32.5945734 12.0529376,34.5945734 C17.0529376,36.5945734 31.0529376,34.5945734 29.0529376,37.5945734 C27.0529376,40.5945734 7.05293763,36.5945734 3.05293763,50.5945734 C1.14511302,57.2719595 0.969243531,73.5204548 10.0529376,79.5945734 C18.3590828,85.1487576 35.1565608,83.0275041 48.0529376,81.5945734 C61.9663509,80.0486386 90.0529376,88.5945734 95.0529376,70.5945734 C100.052938,52.5945734 96.0529376,36.5945734 86.0529376,31.5945734 C79.386271,28.26124 71.7196043,28.5945734 63.0529376,32.5945734 C75.7196043,25.9279067 81.7196043,21.26124 81.0529376,18.5945734 C80.386271,15.9279067 70.386271,15.9279067 51.0529376,18.5945734 Z" id="路径" fill="#4572CC" opacity="0.100000001"></path>
            <g id="交易所" transform="translate(10.000000, 16.000000)" fill-rule="nonzero">
                <path d="M78.8705649,58.7037426 L76.424253,58.7037426 L76.424253,55.2515173 C76.4242767,54.7687935 76.0354935,54.3761224 75.5527933,54.371343 L72.4105587,54.371343 L72.4105587,50.8095627 C72.4118832,50.5771154 72.3208121,50.3536627 72.1573809,50.1883637 C71.9939497,50.0230647 71.7715464,49.9294604 71.539099,49.9281434 L70.5555945,49.9281434 L70.0327186,33.4588002 L71.5316293,33.4588002 C71.7638497,33.4578137 71.9861294,33.3644457 72.1493985,33.199308 C72.3126677,33.0341703 72.4035002,32.8108425 72.4018441,32.5786259 L72.4018441,28.9931917 C72.7333375,28.9392558 73.0034026,28.6978487 73.094032,28.3744554 L74.4161609,23.6449191 C74.4248755,23.6137955 74.414916,23.5826719 74.4198957,23.5503034 C74.4286104,23.5005057 74.4497744,23.4569328 74.4497744,23.4046452 L74.4497744,19.1643713 C74.4497744,19.1519219 74.4373249,19.1419624 74.4373249,19.1295129 C74.4355992,19.0405857 74.4187598,18.9525999 74.3875272,18.8693199 C74.3800576,18.8518908 74.3775677,18.8319716 74.370098,18.8145425 C74.3291238,18.7184596 74.2708955,18.6306952 74.198296,18.5555945 C74.177132,18.5306956 74.1460084,18.5170012 74.1223545,18.4958373 C74.0738017,18.458489 74.0352086,18.4161609 73.981676,18.3875272 L40.3059835,0.167794905 C40.0498548,0.0283120324 39.7404502,0.0283120324 39.4843215,0.167794905 L5.80240428,18.3887722 C5.74887178,18.4186508 5.70778867,18.4609789 5.66172577,18.500817 C5.63931683,18.5194911 5.61068317,18.5331855 5.58951917,18.5568394 C5.51618651,18.632334 5.45713587,18.7204882 5.41522722,18.8170324 C5.40900249,18.8332166 5.40775755,18.8518908 5.40277777,18.8705649 C5.3713044,18.9543558 5.35323844,19.042585 5.34924527,19.1320028 C5.34924527,19.1444523 5.34302055,19.1544118 5.34302055,19.1668612 L5.34302055,23.407135 C5.34302055,23.4556878 5.3629396,23.4980158 5.37040927,23.5440787 C5.37538905,23.5789371 5.36418455,23.6137955 5.3741441,23.646164 L6.69751792,28.3769452 C6.80135735,28.753703 7.14331681,29.0152613 7.53411922,29.0168457 L7.87896822,29.0168457 L7.87896822,32.5786259 C7.87896822,33.0641535 8.26863518,33.4600452 8.74669315,33.4600451 L10.2667678,33.4600451 L9.743892,49.9281434 L8.75665264,49.9281434 C8.2738677,49.931567 7.88449599,50.3242762 7.88519295,50.8070728 L7.88519295,54.371343 L4.24996107,54.371343 C3.76668941,54.3747685 3.37711822,54.7682354 3.37850138,55.2515173 L3.37850138,58.7049875 L0.93343448,58.7049875 C0.450361938,58.7090969 0.0617023664,59.1033247 0.0644500461,59.5864068 L0.0644500461,63.9188064 C0.0644500461,64.4055789 0.452886686,64.8002256 0.93343448,64.8002256 L78.8718098,64.8002256 C79.1038139,64.7989096 79.3257737,64.7053965 79.4887738,64.5402947 C79.6517739,64.3751928 79.7424359,64.1520533 79.740802,63.9200513 L79.740802,59.5864068 C79.740802,59.1008792 79.3523577,58.7024976 78.8718098,58.7024976 L78.8705649,58.7037426 Z" id="路径" fill="#2E384D"></path>
                <polygon id="路径" fill="#FFFFFF" points="70.6701291 54.371343 62.5780034 54.371343 62.5780034 51.6909819 70.672619 51.6909819 70.6701291 54.3725879"></polygon>
                <path d="M60.8288593,29.0193355 L60.8288593,32.5798709 C60.8288593,33.0666434 61.2197712,33.4612901 61.6965842,33.46129 L63.2154139,33.46129 L62.6925381,49.9306333 L61.7040538,49.9306333 C61.4722661,49.9322784 61.250626,50.0259364 61.0878948,50.1910023 C60.9251636,50.3560683 60.8346722,50.57902 60.836329,50.8108076 L60.836329,54.3725879 L58.8195223,54.3725879 L58.8207672,54.371343 L58.8207672,50.8108076 C58.8220917,50.5783603 58.7310206,50.3549077 58.5675894,50.1896087 C58.4041582,50.0243097 58.1817549,49.9307054 57.9493075,49.9293884 L56.964558,49.9293884 L56.4404373,33.46129 L57.9430828,33.46129 C58.1752006,33.459645 58.3971574,33.3658559 58.5601221,33.2005564 C58.7230868,33.035257 58.8137094,32.8119886 58.8120526,32.5798709 L58.8120526,29.0193355 L60.8288593,29.0193355 Z M47.2415577,29.0156007 L47.2415577,32.576136 C47.2415577,33.0616636 47.6337145,33.4575553 48.1092826,33.4575552 L49.6306022,33.4575552 L49.1064815,49.9268986 L48.1142623,49.9268986 C47.6320758,49.9310076 47.2443305,50.3248812 47.2477824,50.8070728 L47.2477824,54.370098 L45.5720899,54.371343 L45.5720899,40.5151339 C45.5720899,37.4812092 43.1332478,35.0112434 40.1404062,35.0112434 C37.1438298,35.0112434 34.7074775,37.4812092 34.7074774,40.5151339 L34.7074774,54.370098 L33.051704,54.370098 L33.051704,50.8070728 C33.0530872,50.323791 32.6635159,49.9303241 32.1802443,49.9268986 L31.193005,49.9268986 L30.6701291,33.4575552 L32.1690399,33.4575552 C32.6508326,33.4575552 33.0404995,33.0629085 33.0404995,32.576136 L33.0404995,29.0156007 L47.2415577,29.0156007 Z M21.4662698,29.0193355 L21.4662698,32.5798709 C21.4662698,33.0666434 21.8571817,33.4612901 22.3364846,33.46129 L23.8553143,33.46129 L23.3324386,49.9281434 L22.3451992,49.9281434 C21.8631023,49.9322504 21.4748422,50.3249604 21.4762294,50.8070728 L21.4762294,54.370098 L19.4581777,54.371343 L19.4569328,54.371343 L19.4569328,50.8108076 C19.4596925,50.3272433 19.0702781,49.932815 18.586718,49.9293884 L17.5994787,49.9293884 L17.0766029,33.46129 L18.5792484,33.46129 C18.8115826,33.459974 19.033859,33.3663297 19.1970926,33.2009944 C19.3603262,33.0356591 19.4511193,32.812203 19.4494631,32.5798709 L19.4494631,29.0193355 L21.4662698,29.0193355 Z" id="形状结合" fill="#699BFF"></path>
                <path d="M43.8329054,54.371343 L36.4416822,54.371343 L36.4416822,40.5151339 C36.4416822,38.4485294 38.0999456,36.7728369 40.1366713,36.7728369 C42.175887,36.7728369 43.8341503,38.4510193 43.8341503,40.5151339 L43.8341503,54.371343 L43.8329054,54.371343 Z" id="路径" fill="#FFFFFF"></path>
                <polygon id="路径" fill="#FFFFFF" points="29.4500856 49.9268986 25.074113 49.9268986 25.5969888 33.4588002 28.9272098 33.4588002 29.4513306 49.9256536"></polygon>
                <polygon id="路径" fill="#FFFFFF" points="29.7687908 31.6972067 23.2066993 31.6972067 23.2066993 29.0168457 31.30007 29.0168457 31.30007 31.6972067 29.7687908 31.6972067"></polygon>
                <polygon id="路径" fill="#FFFFFF" points="23.2154139 51.6884921 31.3112745 51.6884921 31.3112745 54.371343 23.2166589 54.371343"></polygon>
                <polygon id="路径" fill="#FFFFFF" points="55.2241285 49.9256536 50.846911 49.9256536 51.3710318 33.4588002 54.7024976 33.4588002 55.2253735 49.9256536"></polygon>
                <polygon id="路径" fill="#FFFFFF" points="55.5428338 31.6972067 48.9807423 31.6972067 48.9807423 29.0168457 57.074113 29.0168457 57.074113 31.6972067"></polygon>
                <polygon id="路径" fill="#FFFFFF" points="48.9894569 51.6884921 57.0815827 51.6884921 57.0815827 54.371343 48.9894569 54.371343"></polygon>
                <polygon id="路径" fill="#FFFFFF" points="68.81392 49.9256536 64.4367025 49.9256536 64.9595783 33.4588002 68.2910442 33.4588002"></polygon>
                <polygon id="路径" fill="#FFFFFF" points="70.6639045 31.6972067 62.5717787 31.6972067 62.5717787 29.0168457 70.6639045 29.0168457 70.6639045 31.6972067"></polygon>
                <polygon id="路径" fill="#FFFFFF" points="7.08220509 20.0445456 72.7093449 20.0445456 72.7093449 22.5244709 7.08220509 22.5244709 7.08220509 20.0457905"></polygon>
                <polygon id="路径" fill="#FFFFFF" points="39.8963975 1.94308279 70.1036803 18.285442 9.68662467 18.285442"></polygon>
                <polygon id="路径" fill="#FFFFFF" points="7.36231716 24.2860644 72.4304777 24.2860644 71.603836 27.2527622 8.19269374 27.2527622"></polygon>
                <polygon id="路径" fill="#FFFFFF" points="9.61939778 29.0168457 17.7102786 29.0168457 17.7102786 31.6972067 9.61939778 31.6972067"></polygon>
                <polygon id="路径" fill="#FFFFFF" points="12.0096872 33.4588002 15.3386633 33.4588002 15.8615391 49.9293884 11.4855664 49.9293884 12.0084423 33.4588002"></polygon>
                <polygon id="路径" fill="#FFFFFF" points="9.62562244 51.6884921 17.7177482 51.6884921 17.7177482 54.371343 9.62562244 54.371343"></polygon>
                <polygon id="路径" fill="#FFFFFF" points="5.1151961 56.1329365 74.6825786 56.1329365 74.6825786 58.7037426 5.11768599 58.7037426 5.11768599 56.1354264"></polygon>
                <polygon id="路径" fill="#FFFFFF" points="78.0003501 63.0448568 1.79991439 63.0448568 1.79991439 60.467826 78.0015951 60.467826 78.0015951 63.0448568"></polygon>
            </g>
        </g>
    </g>
</svg>