<?xml version="1.0" encoding="UTF-8"?>
<svg width="24px" height="24px" viewBox="0 0 24 24" version="1.1" xmlns="http://www.w3.org/2000/svg" xmlns:xlink="http://www.w3.org/1999/xlink">
    <title>D3A4E540-09A3-4D0E-AA23-8BF4B7D8EA0F</title>
    <g id="控件" stroke="none" stroke-width="1" fill="none" fill-rule="evenodd">
        <g id="icon_silver">
            <rect id="矩形备份" fill="#D8D8D8" opacity="0" x="0" y="0" width="24" height="24"></rect>
            <g id="银牌" transform="translate(3.000000, 0.000000)" fill-rule="nonzero">
                <polygon id="路径" fill="#72BBFF" points="8.36222721 3.13354887 9.53805413 3.13354887 9.53805413 7.43695598 8.36222721 7.43695598 8.36222721 3.13354887"></polygon>
                <polygon id="路径" fill="#84BAFB" points="15.2560347 21.4036309 11.4599641 21.1768217 8.92328168 24 6.40450526 21.1589157 2.60843463 21.3618503 2.84121253 17.577717 0.0120655547 15.0410346 2.85314986 12.5222581 2.65021528 8.73215618 6.44031724 8.9649341 8.98296832 6.14175579 11.5017447 8.97687143 15.2918467 8.77393683 15.0650375 12.5640388 17.8941844 15.0947525 15.0471315 17.613529"></polygon>
                <path d="M9.15009094,10.5704706 C11.7443565,10.5738033 13.8447508,12.6795444 13.8414575,15.2738099 C13.8381566,17.8680755 11.7324167,19.9684709 9.13815109,19.9651791 C6.54388549,19.9618795 4.443489,17.8561408 4.44677943,15.2618752 C4.44518593,14.0150867 4.94058147,12.8190783 5.82331426,11.9385859 C6.70604704,11.0580936 7.90331059,10.565739 9.15009094,10.5704706 L9.15009094,10.5704706 Z" id="路径" fill="#0780ED"></path>
                <polygon id="路径" fill="#D5E3EB" points="11.4002775 18.449142 9.25752689 17.8582442 7.10880766 18.4431733 7.01330904 16.2228301 5.78973281 14.3725441 7.87279673 13.5906491 9.26349555 11.8597364 10.6482257 13.5966178 12.7312896 14.3785128 11.5017447 16.2287988 11.4002775 18.449142"></polygon>
                <polygon id="路径" fill="#78B6DC" points="4.05285143 0 13.4594667 0 13.4594667 4.30340712 4.05285143 4.30340712"></polygon>
                <path d="M5.22867834,0 L6.40450526,0 L6.40450526,4.30340712 L5.22867834,4.30340712 L5.22867834,0 Z M11.1078129,0 L12.2836398,0 L12.2836398,4.30340712 L11.1078129,4.30340712 L11.1078129,0 Z" id="形状" fill="#FFFFFF"></path>
            </g>
        </g>
    </g>
</svg>