<?xml version="1.0" encoding="UTF-8"?>
<svg width="32px" height="32px" viewBox="0 0 32 32" version="1.1" xmlns="http://www.w3.org/2000/svg" xmlns:xlink="http://www.w3.org/1999/xlink">
    <title>E50D494E-BBA5-4A5F-A7E4-5C5BCBD0D1EE</title>
    <g id="控件" stroke="none" stroke-width="1" fill="none" fill-rule="evenodd">
        <g id="美国">
            <path d="M16.2318314,9.79651163 L30.6686047,9.79651163 C30.3197674,8.96802326 29.909157,8.17587209 29.4331395,7.42732558 L16.2318314,7.42732558 L16.2318314,9.79651163 Z M27.4527616,27.005814 L4.45857558,27.005814 C5.32340116,27.8997093 6.28633721,28.6954942 7.33648256,29.375 L24.5712209,29.375 C25.625,28.6991279 26.587936,27.903343 27.4527616,27.005814 Z M16.2318314,4.90188953 L27.4491279,4.90188953 C26.5843023,4.00799419 25.6213663,3.2122093 24.5712209,2.53270349 L16.2318314,2.53270349 L16.2318314,4.90188953 L16.2318314,4.90188953 Z M16.2318314,14.6911337 L31.8531977,14.6911337 C31.7877907,13.8844477 31.6678779,13.0922965 31.4861919,12.3219477 L16.2318314,12.3219477 L16.2318314,14.6911337 Z M31.8531977,17.2202035 L0.0581395349,17.2202035 C0.123546512,18.0268895 0.243459302,18.8190407 0.425145349,19.5893895 L31.4898256,19.5893895 C31.6642442,18.8190407 31.7914244,18.0268895 31.8531977,17.2202035 Z M30.6686047,22.1111919 L1.23909884,22.1111919 C1.58793605,22.9396802 1.99854651,23.7318314 2.47456395,24.4803779 L29.4331395,24.4803779 C29.909157,23.7318314 30.3234012,22.9396802 30.6686047,22.1111919 Z" id="形状" fill="#FFFFFF" fill-rule="nonzero"></path>
            <path d="M24.5712209,2.53270349 C22.1547965,0.981104651 19.2986919,0.0617732558 16.2318314,0.0109011628 L16.2318314,2.53270349 L24.5712209,2.53270349 Z M16.2318314,7.4309593 L29.4331395,7.4309593 C28.8553779,6.52252907 28.1940407,5.67587209 27.4527616,4.90552326 L16.2390988,4.90552326 L16.2390988,7.4309593 L16.2318314,7.4309593 L16.2318314,7.4309593 Z M16.2318314,12.3255814 L31.4898256,12.3255814 C31.2863372,11.4534884 31.0138081,10.6068314 30.6722384,9.80014535 L16.2318314,9.80014535 L16.2318314,12.3255814 Z M16.2318314,17.2202035 L31.8531977,17.2202035 C31.8859012,16.8059593 31.9040698,16.380814 31.9040698,15.9556686 C31.9040698,15.5305233 31.8859012,15.1090116 31.8531977,14.6911337 L16.2318314,14.6911337 L16.2318314,17.2202035 Z M31.4861919,19.5857558 L0.421511628,19.5857558 C0.625,20.4578488 0.89752907,21.3045058 1.23909884,22.1111919 L30.6686047,22.1111919 C31.0101744,21.3008721 31.2827035,20.4614826 31.4861919,19.5857558 Z M29.4331395,24.4803779 L2.47456395,24.4803779 C3.05232558,25.3888081 3.71366279,26.2354651 4.45494186,27.005814 L27.4491279,27.005814 C28.1940407,26.2354651 28.8553779,25.3924419 29.4331395,24.4803779 Z M24.5712209,29.375 L7.33648256,29.375 C9.81468023,30.9665698 12.7543605,31.8931686 15.912064,31.900436 L15.9920058,31.900436 C19.153343,31.8931686 22.096657,30.9665698 24.5712209,29.375 Z" id="形状" fill="#EB0000" fill-rule="nonzero"></path>
            <path d="M16.2318314,14.6911337 L16.2318314,0.0109011628 C16.1518895,0.0109011628 16.0755814,0.00726744186 15.9956395,0.00726744186 L15.9156977,0.00726744186 C13.8989826,0.0109011628 11.965843,0.39244186 10.1925872,1.08284884 L10.3306686,1.51526163 L11.0465116,1.51526163 L10.46875,1.93313953 L10.6867733,2.60901163 L10.1090116,2.19113372 L9.53125,2.60901163 L9.74927326,1.93313953 L9.17514535,1.51526163 C6.2318314,2.90334302 3.77543605,5.16351744 2.14752907,7.96511628 L2.28924419,8.40479651 L3.00145349,8.40479651 L2.42369186,8.82630814 L2.64534884,9.50218023 L2.07485465,9.08430233 L1.49709302,9.50581395 L1.71511628,8.82994186 L1.69331395,8.81540698 C0.984738372,10.2289244 0.479651163,11.7587209 0.218023256,13.372093 L0.287063953,13.5792151 L0.999273256,13.5792151 L0.421511628,14.0007267 L0.643168605,14.6765988 L0.0944767442,14.2768895 C0.0363372093,14.8292151 0.00363372093,15.3924419 0.00363372093,15.9593023 C0.00363372093,16.3844477 0.0218023256,16.8059593 0.054505814,17.2238372 L16.2318314,17.2238372 L16.2318314,14.6911337 Z M2.65261628,16.3917151 L2.07485465,15.9738372 L1.49709302,16.3917151 L1.71511628,15.715843 L1.13735465,15.2979651 L1.85319767,15.2979651 L2.07122093,14.622093 L2.29287791,15.2979651 L3.00508721,15.2979651 L2.42732558,15.715843 L2.65261628,16.3917151 L2.65261628,16.3917151 Z M2.4309593,12.2674419 L2.65261628,12.943314 L2.07485465,12.525436 L1.4934593,12.9469477 L1.71148256,12.2710756 L1.13372093,11.849564 L1.84593023,11.849564 L2.06395349,11.1736919 L2.28561047,11.849564 L2.99781977,11.849564 L2.4309593,12.2674419 L2.4309593,12.2674419 Z M4.44040698,13.9898256 L4.65843023,14.6656977 L4.0806686,14.244186 L3.50290698,14.6656977 L3.72093023,13.9898256 L3.1431686,13.568314 L3.85537791,13.568314 L4.07703488,12.8924419 L4.29869186,13.568314 L5.01453488,13.568314 L4.44040698,13.9898256 Z M4.44040698,10.5450581 L4.65843023,11.2209302 L4.0806686,10.8030523 L3.50290698,11.2209302 L3.72093023,10.5450581 L3.1431686,10.1271802 L3.85537791,10.1271802 L4.07703488,9.45130814 L4.29869186,10.1271802 L5.01453488,10.1271802 L4.44040698,10.5450581 Z M4.44040698,7.1002907 L4.65843023,7.77616279 L4.0806686,7.35465116 L3.50290698,7.77616279 L3.72093023,7.1002907 L3.1431686,6.68241279 L3.85537791,6.68241279 L4.07703488,6.0065407 L4.29869186,6.68241279 L5.01090116,6.68241279 L4.44040698,7.1002907 L4.44040698,7.1002907 Z M6.66787791,16.3917151 L6.09011628,15.9738372 L5.51235465,16.3917151 L5.73401163,15.715843 L5.15988372,15.2943314 L5.87209302,15.2943314 L6.09011628,14.6184593 L6.30813953,15.2943314 L7.02034884,15.2943314 L6.44258721,15.7122093 L6.66787791,16.3917151 L6.66787791,16.3917151 Z M6.44622093,12.2674419 L6.66787791,12.943314 L6.09011628,12.525436 L5.51235465,12.9469477 L5.73401163,12.2710756 L5.15988372,11.849564 L5.87209302,11.849564 L6.09011628,11.1736919 L6.30813953,11.849564 L7.02034884,11.849564 L6.44622093,12.2674419 L6.44622093,12.2674419 Z M6.44622093,8.82267442 L6.66787791,9.49854651 L6.09011628,9.0806686 L5.51235465,9.49854651 L5.73401163,8.82267442 L5.15988372,8.40479651 L5.87209302,8.40479651 L6.09011628,7.72892442 L6.30813953,8.40479651 L7.02034884,8.40479651 L6.44622093,8.82267442 L6.44622093,8.82267442 Z M6.44622093,5.37790698 L6.66787791,6.05377907 L6.09011628,5.63226744 L5.51235465,6.05377907 L5.73401163,5.37790698 L5.15988372,4.96002907 L5.87209302,4.96002907 L6.09011628,4.28415698 L6.30813953,4.96002907 L7.02034884,4.96002907 L6.44622093,5.37790698 L6.44622093,5.37790698 Z M8.45930233,13.9898256 L8.6809593,14.6656977 L8.10319767,14.2478198 L7.52180233,14.6693314 L7.7434593,13.9934593 L7.16569767,13.5719477 L7.87790698,13.5719477 L8.09593023,12.8960756 L8.31758721,13.5719477 L9.02979651,13.5719477 L8.45930233,13.9898256 L8.45930233,13.9898256 Z M8.45930233,10.5450581 L8.6809593,11.2209302 L8.10319767,10.8030523 L7.52543605,11.2209302 L7.74709302,10.5450581 L7.1693314,10.1271802 L7.8815407,10.1271802 L8.09956395,9.45130814 L8.32122093,10.1271802 L9.03343023,10.1271802 L8.45930233,10.5450581 L8.45930233,10.5450581 Z M8.45930233,7.1002907 L8.6809593,7.77616279 L8.10319767,7.35828488 L7.52543605,7.77616279 L7.74709302,7.1002907 L7.1693314,6.68241279 L7.8815407,6.68241279 L8.09956395,6.0065407 L8.32122093,6.68241279 L9.03343023,6.68241279 L8.45930233,7.1002907 L8.45930233,7.1002907 Z M8.45930233,3.65552326 L8.6809593,4.33139535 L8.10319767,3.91351744 L7.52543605,4.33139535 L7.74709302,3.65552326 L7.16569767,3.23401163 L7.87790698,3.23401163 L8.09593023,2.55813953 L8.31758721,3.23401163 L9.02979651,3.23401163 L8.45930233,3.65552326 L8.45930233,3.65552326 Z M10.6867733,16.3917151 L10.1090116,15.9738372 L9.53125,16.3917151 L9.74927326,15.715843 L9.17151163,15.2979651 L9.88372093,15.2979651 L10.1053779,14.622093 L10.3270349,15.2979651 L11.0392442,15.2979651 L10.4651163,15.715843 L10.6867733,16.3917151 L10.6867733,16.3917151 Z M10.46875,12.2674419 L10.6867733,12.9469477 L10.1090116,12.525436 L9.53125,12.9469477 L9.74927326,12.2710756 L9.17151163,11.849564 L9.88372093,11.849564 L10.1053779,11.1736919 L10.3270349,11.849564 L11.0392442,11.849564 L10.46875,12.2674419 L10.46875,12.2674419 Z M10.46875,8.82267442 L10.6867733,9.49854651 L10.1090116,9.0806686 L9.53125,9.49854651 L9.74927326,8.82267442 L9.17151163,8.40116279 L9.88372093,8.40116279 L10.1053779,7.7252907 L10.3270349,8.40116279 L11.0392442,8.40116279 L10.46875,8.82267442 L10.46875,8.82267442 Z M10.46875,5.37790698 L10.6867733,6.05377907 L10.1090116,5.63226744 L9.53125,6.05377907 L9.74927326,5.37790698 L9.17151163,4.95639535 L9.88372093,4.95639535 L10.1053779,4.28052326 L10.3270349,4.95639535 L11.0392442,4.95639535 L10.46875,5.37790698 L10.46875,5.37790698 Z M12.474564,13.9898256 L12.6925872,14.6656977 L12.1184593,14.244186 L11.5406977,14.6656977 L11.7623547,13.9898256 L11.184593,13.568314 L11.8968023,13.568314 L12.1184593,12.8924419 L12.3364826,13.568314 L13.0486919,13.568314 L12.474564,13.9898256 L12.474564,13.9898256 Z M12.474564,10.5450581 L12.6925872,11.2209302 L12.1184593,10.8030523 L11.5406977,11.2209302 L11.7587209,10.5450581 L11.1809593,10.1271802 L11.8931686,10.1271802 L12.1148256,9.45130814 L12.3328488,10.1271802 L13.0450581,10.1271802 L12.474564,10.5450581 Z M12.474564,7.1002907 L12.6925872,7.77616279 L12.1184593,7.3619186 L11.5406977,7.78343023 L11.7623547,7.10755814 L11.184593,6.68604651 L11.8968023,6.68604651 L12.1184593,6.01017442 L12.3364826,6.68604651 L13.0486919,6.68604651 L12.474564,7.1002907 L12.474564,7.1002907 Z M12.474564,3.65552326 L12.6925872,4.33139535 L12.1184593,3.91351744 L11.5406977,4.33139535 L11.7623547,3.65552326 L11.1809593,3.23401163 L11.8931686,3.23401163 L12.1148256,2.55813953 L12.3328488,3.23401163 L13.0450581,3.23401163 L12.474564,3.65552326 Z M14.7093023,16.3917151 L14.127907,15.9738372 L13.5501453,16.3917151 L13.7681686,15.715843 L13.1940407,15.2943314 L13.90625,15.2943314 L14.1242733,14.6184593 L14.3459302,15.2943314 L15.0581395,15.2943314 L14.4803779,15.715843 L14.7093023,16.3917151 L14.7093023,16.3917151 Z M14.4840116,12.2674419 L14.7056686,12.943314 L14.1242733,12.5290698 L13.5465116,12.9505814 L13.7645349,12.2747093 L13.190407,11.8531977 L13.9026163,11.8531977 L14.1206395,11.1773256 L14.3422965,11.8531977 L15.0545058,11.8531977 L14.4840116,12.2674419 L14.4840116,12.2674419 Z M14.4840116,8.82267442 L14.7056686,9.49854651 L14.1242733,9.0806686 L13.5465116,9.49854651 L13.7645349,8.82267442 L13.190407,8.40116279 L13.9026163,8.40116279 L14.1206395,7.7252907 L14.3422965,8.40116279 L15.0545058,8.40116279 L14.4840116,8.82267442 L14.4840116,8.82267442 Z M14.4840116,5.37790698 L14.7056686,6.05377907 L14.1242733,5.63226744 L13.5465116,6.05377907 L13.7645349,5.37790698 L13.190407,4.95639535 L13.9026163,4.95639535 L14.1206395,4.28052326 L14.3422965,4.95639535 L15.0545058,4.95639535 L14.4840116,5.37790698 L14.4840116,5.37790698 Z M14.4840116,1.93313953 L14.7056686,2.60901163 L14.1242733,2.19113372 L13.5465116,2.60901163 L13.7645349,1.93313953 L13.190407,1.51526163 L13.9026163,1.51526163 L14.1206395,0.835755814 L14.3422965,1.51162791 L15.0545058,1.51162791 L14.4840116,1.93313953 L14.4840116,1.93313953 Z" id="形状" fill="#223BAE" fill-rule="nonzero"></path>
            <path d="M10.0036337,1.15188953 C9.72383721,1.26453488 9.44767442,1.38444767 9.17514535,1.51526163 L9.88372093,1.51526163 L10.0036337,1.15188953 Z" id="路径" fill="#223BAE" fill-rule="nonzero"></path>
            <path d="M9.53125,2.61264535 L10.1090116,2.19476744 L10.6867733,2.61264535 L10.46875,1.93677326 L11.0465116,1.51889535 L10.3343023,1.51889535 L10.1925872,1.08648256 C10.130814,1.1119186 10.0726744,1.13372093 10.0109012,1.15915698 L9.89098837,1.52252907 L9.18241279,1.52252907 L9.76017442,1.9440407 L9.53125,2.61264535 L9.53125,2.61264535 Z M14.127907,0.835755814 L13.9098837,1.51526163 L13.1976744,1.51526163 L13.775436,1.93677326 L13.5537791,2.61264535 L14.1315407,2.19113372 L14.712936,2.61264535 L14.4912791,1.93677326 L15.0690407,1.51526163 L14.3568314,1.51526163 L14.127907,0.835755814 Z M8.32122093,3.23401163 L8.09956395,2.55813953 L7.8815407,3.23401163 L7.1693314,3.23401163 L7.74709302,3.65552326 L7.52543605,4.33502907 L8.10319767,3.91351744 L8.68459302,4.33502907 L8.46293605,3.65552326 L9.04069767,3.23401163 L8.32122093,3.23401163 Z M12.3401163,3.23401163 L12.122093,2.55813953 L11.900436,3.23401163 L11.1882267,3.23401163 L11.7659884,3.65552326 L11.5479651,4.33502907 L12.1257267,3.91351744 L12.7034884,4.33502907 L12.4818314,3.65552326 L13.0632267,3.23401163 L12.3401163,3.23401163 L12.3401163,3.23401163 Z M6.09375,4.27688953 L5.87209302,4.95639535 L5.15988372,4.95639535 L5.73764535,5.37790698 L5.51962209,6.05377907 L6.09738372,5.63226744 L6.67514535,6.05377907 L6.45348837,5.37790698 L7.03125,4.95639535 L6.3190407,4.95639535 L6.09375,4.27688953 Z M10.1090116,4.27688953 L9.89098837,4.95639535 L9.17877907,4.95639535 L9.75290698,5.37790698 L9.53488372,6.05377907 L10.1126453,5.63226744 L10.690407,6.05377907 L10.4723837,5.37790698 L11.0501453,4.95639535 L10.337936,4.95639535 L10.1090116,4.27688953 L10.1090116,4.27688953 Z M14.127907,4.27688953 L13.9098837,4.95639535 L13.1976744,4.95639535 L13.7718023,5.37790698 L13.5501453,6.05377907 L14.127907,5.63226744 L14.7093023,6.05377907 L14.4876453,5.37790698 L15.065407,4.95639535 L14.3531977,4.95639535 L14.127907,4.27688953 L14.127907,4.27688953 Z M4.30232558,6.67877907 L4.0806686,6.00290698 L3.85901163,6.67877907 L3.14680233,6.67877907 L3.72456395,7.09665698 L3.5065407,7.77616279 L4.08430233,7.35828488 L4.66206395,7.77616279 L4.4440407,7.09665698 L5.02180233,6.67877907 L4.30232558,6.67877907 L4.30232558,6.67877907 Z M8.32122093,6.67877907 L8.09956395,6.00290698 L7.8815407,6.67877907 L7.1693314,6.67877907 L7.74709302,7.09665698 L7.52543605,7.77616279 L8.10319767,7.35828488 L8.68459302,7.77616279 L8.46293605,7.09665698 L9.04069767,6.67877907 L8.32122093,6.67877907 L8.32122093,6.67877907 Z M12.3401163,6.67877907 L12.122093,6.00290698 L11.900436,6.67877907 L11.1882267,6.67877907 L11.7659884,7.09665698 L11.5479651,7.77616279 L12.1257267,7.35828488 L12.7034884,7.77616279 L12.4818314,7.09665698 L13.0632267,6.67877907 L12.3401163,6.67877907 L12.3401163,6.67877907 Z M1.4934593,9.49854651 L2.07122093,9.07703488 L2.64898256,9.49854651 L2.42732558,8.82267442 L3.00508721,8.40479651 L2.28924419,8.40479651 L2.14389535,7.96511628 C1.98401163,8.24127907 1.83139535,8.5247093 1.68968023,8.80813953 L1.71148256,8.82267442 L1.4934593,9.49854651 L1.4934593,9.49854651 Z M6.09375,7.72165698 L5.87209302,8.40116279 L5.15988372,8.40116279 L5.73764535,8.82267442 L5.51962209,9.49854651 L6.09738372,9.0806686 L6.67514535,9.49854651 L6.45348837,8.82267442 L7.03125,8.40116279 L6.3190407,8.40116279 L6.09375,7.72165698 L6.09375,7.72165698 Z M10.1090116,7.72165698 L9.89098837,8.40116279 L9.17877907,8.40116279 L9.75290698,8.82267442 L9.53488372,9.49854651 L10.1126453,9.0806686 L10.690407,9.49854651 L10.4723837,8.82267442 L11.0501453,8.40116279 L10.337936,8.40116279 L10.1090116,7.72165698 L10.1090116,7.72165698 Z M14.127907,7.72165698 L13.9098837,8.40116279 L13.1976744,8.40116279 L13.775436,8.82267442 L13.5537791,9.49854651 L14.1315407,9.0806686 L14.712936,9.49854651 L14.4912791,8.82267442 L15.0690407,8.40116279 L14.3568314,8.40116279 L14.127907,7.72165698 L14.127907,7.72165698 Z M4.30232558,10.1271802 L4.0806686,9.44767442 L3.85901163,10.1271802 L3.14680233,10.1271802 L3.72456395,10.5486919 L3.5065407,11.224564 L4.08430233,10.806686 L4.66206395,11.224564 L4.4440407,10.5486919 L5.02180233,10.130814 L4.30232558,10.1271802 L4.30232558,10.1271802 Z M8.32122093,10.1271802 L8.09956395,9.44767442 L7.8815407,10.1271802 L7.1693314,10.1271802 L7.74709302,10.5486919 L7.52543605,11.224564 L8.10319767,10.806686 L8.68459302,11.224564 L8.46293605,10.5486919 L9.04069767,10.130814 L8.32122093,10.1271802 L8.32122093,10.1271802 Z M12.3401163,10.1271802 L12.122093,9.44767442 L11.900436,10.1271802 L11.1882267,10.1271802 L11.7659884,10.5486919 L11.5479651,11.224564 L12.1257267,10.8030523 L12.7034884,11.224564 L12.4818314,10.5486919 L13.0632267,10.1271802 L12.3401163,10.1271802 L12.3401163,10.1271802 Z M2.07122093,11.1700581 L1.85319767,11.8459302 L1.14098837,11.8459302 L1.71875,12.2674419 L1.49709302,12.9469477 L2.07485465,12.525436 L2.65625,12.9469477 L2.43459302,12.2674419 L3.01235465,11.8459302 L2.30014535,11.8459302 L2.07122093,11.1700581 L2.07122093,11.1700581 Z M6.09375,11.1700581 L5.87209302,11.8459302 L5.15988372,11.8459302 L5.73764535,12.2674419 L5.51962209,12.9469477 L6.09738372,12.525436 L6.67514535,12.9469477 L6.45348837,12.2674419 L7.03125,11.8459302 L6.3190407,11.8459302 L6.09375,11.1700581 L6.09375,11.1700581 Z M10.1090116,11.1700581 L9.89098837,11.8459302 L9.17877907,11.8459302 L9.75290698,12.2674419 L9.53488372,12.9469477 L10.1126453,12.525436 L10.690407,12.9469477 L10.4723837,12.2674419 L11.0501453,11.8459302 L10.337936,11.8459302 L10.1090116,11.1700581 L10.1090116,11.1700581 Z M14.127907,11.1700581 L13.9098837,11.8459302 L13.1976744,11.8459302 L13.775436,12.2674419 L13.5537791,12.9469477 L14.1315407,12.525436 L14.712936,12.9469477 L14.4912791,12.2674419 L15.0690407,11.8459302 L14.3568314,11.8459302 L14.127907,11.1700581 L14.127907,11.1700581 Z M0.643168605,14.6693314 L0.421511628,13.9898256 L0.999273256,13.568314 L0.283430233,13.568314 L0.214389535,13.3611919 C0.163517442,13.6627907 0.123546512,13.9643895 0.0944767442,14.2696221 L0.643168605,14.6693314 L0.643168605,14.6693314 Z M4.30232558,13.5719477 L4.0806686,12.8924419 L3.85901163,13.5719477 L3.14680233,13.5719477 L3.72456395,13.9934593 L3.5065407,14.6693314 L4.08430233,14.2478198 L4.66206395,14.6693314 L4.4440407,13.9934593 L5.02180233,13.5719477 L4.30232558,13.5719477 L4.30232558,13.5719477 Z M8.32122093,13.5719477 L8.09956395,12.8924419 L7.8815407,13.5719477 L7.1693314,13.5719477 L7.74709302,13.9934593 L7.52543605,14.6693314 L8.10319767,14.2478198 L8.68459302,14.6693314 L8.46293605,13.9934593 L9.04069767,13.5719477 L8.32122093,13.5719477 Z M12.3401163,13.5719477 L12.122093,12.8924419 L11.900436,13.5719477 L11.1882267,13.5719477 L11.7659884,13.9934593 L11.5479651,14.6693314 L12.1257267,14.2478198 L12.7034884,14.6693314 L12.4818314,13.9934593 L13.0632267,13.5719477 L12.3401163,13.5719477 L12.3401163,13.5719477 Z M2.29287791,15.2906977 L2.07122093,14.6148256 L1.85319767,15.2906977 L1.14098837,15.2906977 L1.71875,15.7122093 L1.49709302,16.3880814 L2.07485465,15.9702035 L2.65625,16.3880814 L2.43459302,15.7122093 L3.01235465,15.2906977 L2.29287791,15.2906977 L2.29287791,15.2906977 Z M6.31177326,15.2906977 L6.09375,14.6148256 L5.87209302,15.2906977 L5.15988372,15.2906977 L5.73764535,15.7122093 L5.51962209,16.3880814 L6.09738372,15.9702035 L6.67514535,16.3880814 L6.45348837,15.7122093 L7.03125,15.2906977 L6.31177326,15.2906977 L6.31177326,15.2906977 Z M10.3306686,15.2906977 L10.1090116,14.6148256 L9.89098837,15.2906977 L9.17877907,15.2906977 L9.75290698,15.7122093 L9.53488372,16.3880814 L10.1126453,15.9702035 L10.690407,16.3880814 L10.4723837,15.7122093 L11.0501453,15.2906977 L10.3306686,15.2906977 L10.3306686,15.2906977 Z M14.349564,15.2906977 L14.127907,14.6148256 L13.9098837,15.2906977 L13.1976744,15.2906977 L13.775436,15.7122093 L13.5537791,16.3880814 L14.1315407,15.9702035 L14.712936,16.3880814 L14.4912791,15.7122093 L15.0690407,15.2906977 L14.349564,15.2906977 L14.349564,15.2906977 Z" id="形状" fill="#FFFFFF" fill-rule="nonzero"></path>
            <circle id="椭圆形" stroke="#FFFFFF" cx="16" cy="16" r="15.5"></circle>
        </g>
    </g>
</svg>