<?xml version="1.0" encoding="UTF-8"?>
<svg width="16px" height="16px" viewBox="0 0 16 16" version="1.1" xmlns="http://www.w3.org/2000/svg" xmlns:xlink="http://www.w3.org/1999/xlink">
    <title>B4B69099-0F25-4657-9F99-9368BB3FC01D</title>
    <g id="控件" stroke="none" stroke-width="1" fill="none" fill-rule="evenodd">
        <g id="icon_price">
            <rect id="矩形" fill="#D8D8D8" opacity="0" x="0" y="0" width="16" height="16"></rect>
            <g id="价格" fill="#7A8599" fill-rule="nonzero">
                <path d="M7.19921875,15.5 C6.97851563,15.5 6.75976562,15.4160156 6.59179687,15.2480469 L0.751953125,9.40820312 C0.416015625,9.07226562 0.416015625,8.52734375 0.751953125,8.19335938 L8.02734375,0.91796875 C8.14453125,0.80078125 8.30273438,0.734375 8.46875,0.734375 L14.390625,0.734375 C14.8730469,0.734375 15.265625,1.12695312 15.265625,1.609375 L15.265625,7.53125 C15.265625,7.69726562 15.1992188,7.85546875 15.0820313,7.97265625 L7.80664062,15.2480469 C7.63867188,15.4160156 7.41992188,15.5 7.19921875,15.5 Z M1.91210937,8.80078125 L7.19921875,14.0878906 L14.015625,7.27148437 L14.015625,1.984375 L8.72851562,1.984375 L1.91210937,8.80078125 Z" id="形状"></path>
                <path d="M10.65625,7.3359375 C9.55859375,7.3359375 8.6640625,6.44140625 8.6640625,5.34375 C8.6640625,4.24609375 9.55859375,3.3515625 10.65625,3.3515625 C11.7539062,3.3515625 12.6484375,4.24609375 12.6484375,5.34375 C12.6484375,6.44140625 11.7539062,7.3359375 10.65625,7.3359375 Z M10.65625,4.6015625 C10.2460938,4.6015625 9.9140625,4.93359375 9.9140625,5.34375 C9.9140625,5.75390625 10.2460938,6.0859375 10.65625,6.0859375 C11.0664062,6.0859375 11.3984375,5.75390625 11.3984375,5.34375 C11.3984375,4.93359375 11.0664062,4.6015625 10.65625,4.6015625 Z" id="形状"></path>
            </g>
        </g>
    </g>
</svg>