<?xml version="1.0" encoding="UTF-8"?>
<svg width="16px" height="16px" viewBox="0 0 16 16" version="1.1" xmlns="http://www.w3.org/2000/svg" xmlns:xlink="http://www.w3.org/1999/xlink">
    <title>icon_go</title>
    <g id="页面-2" stroke="none" stroke-width="1" fill="none" fill-rule="evenodd">
        <g id="全站实时记录-查询状态" transform="translate(-416.000000, -180.000000)" fill-rule="nonzero">
            <g id="左侧" transform="translate(240.000000, 96.000000)">
                <g id="编组-5" transform="translate(1.000000, 16.000000)">
                    <g id="编组-11" transform="translate(15.000000, 60.000000)">
                        <g id="编组-7" transform="translate(32.000000, 8.000000)">
                            <g id="发送" transform="translate(128.000000, 0.000000)">
                                <rect id="矩形" fill="#000000" opacity="0" x="0" y="0" width="16" height="16"></rect>
                                <path d="M14.8466667,2.57333333 C14.6849507,2.37823557 14.4266074,2.29169058 14.18,2.35 L1.18,5.35 C0.954198348,5.40734724 0.774712501,5.57840687 0.70658238,5.80119237 C0.63845226,6.02397787 0.691562129,6.26616769 0.846666672,6.44 L2.94333333,8.83666667 L2.03666667,12.17 C1.96054336,12.4444199 2.06713931,12.7368927 2.30198757,12.8979745 C2.53683584,13.0590563 2.84807274,13.0531741 3.07666667,12.8833333 L9.41,8.21666667 C9.60173254,8.07495133 9.70329648,7.84171285 9.67643366,7.60480992 C9.64957083,7.367907 9.49836235,7.16333081 9.27976699,7.06814324 C9.06117162,6.97295567 8.80839921,7.00161797 8.61666667,7.14333333 L3.81333333,10.6666667 L4.31,8.85 C4.36909919,8.6334226 4.31522635,8.40164408 4.16666667,8.23333333 L2.57,6.4 L13.1966667,3.94666667 L9.70666667,12 L8.37333333,11.11 C8.17592978,10.9615238 7.91261128,10.9343642 7.68905739,11.0394213 C7.4655035,11.1444784 7.31836,11.3645308 7.3066811,11.6112633 C7.29500219,11.8579958 7.42070233,12.0909631 7.63333333,12.2166667 L9.63333333,13.55 C9.7408864,13.6251927 9.86877121,13.6658833 10,13.6666667 C10.0642166,13.6659856 10.128077,13.6570228 10.19,13.64 C10.3788442,13.5827875 10.5326419,13.4448578 10.61,13.2633333 L14.9433333,3.26333333 C15.0434242,3.03345471 15.0060748,2.76685702 14.8466667,2.57333333 Z" id="路径" fill="#7A8599"></path>
                            </g>
                        </g>
                    </g>
                </g>
            </g>
        </g>
    </g>
</svg>