<?xml version="1.0" encoding="UTF-8"?>
<svg width="24px" height="24px" viewBox="0 0 24 24" version="1.1" xmlns="http://www.w3.org/2000/svg" xmlns:xlink="http://www.w3.org/1999/xlink">
    <title>C1D10E59-E97D-44BC-B09F-83FC3521008B</title>
    <g id="控件" stroke="none" stroke-width="1" fill="none" fill-rule="evenodd" opacity="0.800000012">
        <g id="mail" fill="#FFFFFF">
            <path d="M12,0 C18.627417,0 24,5.372583 24,12 C24,18.627417 18.627417,24 12,24 C5.372583,24 0,18.627417 0,12 C0,5.372583 5.372583,0 12,0 Z M19.1982013,9.5380093 L12.1705527,13.2654174 C12.0633484,13.3231427 11.9330541,13.3231427 11.8258499,13.2654174 L4.80479845,9.5413079 L4.79820128,16.4568044 C4.79820128,17.2270255 5.44637444,17.8570564 6.23803634,17.8570564 L17.7583662,17.8570564 C18.5500281,17.8570564 19.1982013,17.2270255 19.1982013,16.4568044 L19.1982013,9.5380093 Z M17.7583662,6.65833916 L6.23803633,6.65833916 C5.44967302,6.65833916 4.81139562,7.28012362 4.80479845,8.04539677 L4.80479845,8.04539677 L12.0023245,11.9509288 L19.1982013,8.04209819 C19.1883055,7.27847431 18.5450802,6.65833916 17.7583662,6.65833916 L17.7583662,6.65833916 Z"></path>
        </g>
    </g>
</svg>