<?xml version="1.0" encoding="UTF-8"?>
<svg width="24px" height="24px" viewBox="0 0 24 24" version="1.1" xmlns="http://www.w3.org/2000/svg" xmlns:xlink="http://www.w3.org/1999/xlink">
    <title>m</title>
    <g id="控件" stroke="none" stroke-width="1" fill="none" fill-rule="evenodd" opacity="0.800000012">
        <g id="bottom" transform="translate(-1387.000000, -60.000000)" fill="#FFFFFF">
            <g id="编组-16" transform="translate(1227.000000, 60.000000)">
                <g id="m" transform="translate(160.000000, 0.000000)">
                    <path d="M12,24 C18.627417,24 24,18.627417 24,12 C24,5.372583 18.627417,0 12,0 C5.372583,0 0,5.372583 0,12 C0,18.627417 5.372583,24 12,24 Z M17.8825521,7.30885417 L19,6.23515625 L19,6 L15.1299479,6 L12.371875,12.8979167 L9.23463542,6 L5.17682292,6 L5.17682292,6.23515625 L6.48203125,7.81380208 C6.60963542,7.93046875 6.67526042,8.10182292 6.65885417,8.27317708 L6.65885417,14.4765625 C6.69895833,14.7007812 6.62786458,14.9286458 6.47109375,15.0908854 L5,16.8828125 L5,17.1143229 L9.1671875,17.1143229 L9.1671875,16.8791667 L7.69791667,15.0927083 C7.53834565,14.9307012 7.4635144,14.7035109 7.49557292,14.4783854 L7.49557292,9.11171875 L11.1541667,17.1179688 L11.5789063,17.1179688 L14.7252604,9.11171875 L14.7252604,15.4901042 C14.7252604,15.6578125 14.7252604,15.6924479 14.6158854,15.8036458 L13.4838542,16.9028646 L13.4838542,17.1380208 L18.9744792,17.1380208 L18.9744792,16.9028646 L17.8825521,15.8291667 C17.7877604,15.75625 17.7385417,15.6341146 17.7585938,15.515625 L17.7585938,7.62239583 C17.7393649,7.50306654 17.7869223,7.38277425 17.8825521,7.30885417 L17.8825521,7.30885417 Z" id="mail"></path>
                </g>
            </g>
        </g>
    </g>
</svg>