<?xml version="1.0" encoding="UTF-8"?>
<svg width="24px" height="24px" viewBox="0 0 24 24" version="1.1" xmlns="http://www.w3.org/2000/svg" xmlns:xlink="http://www.w3.org/1999/xlink">
    <title>BFFF7088-84A9-49D4-93E9-E6A26B13BFF7</title>
    <g id="控件" stroke="none" stroke-width="1" fill="none" fill-rule="evenodd" opacity="0.800000012">
        <g id="reddit" fill="#FFFFFF">
            <path d="M12,0 C18.627417,0 24,5.372583 24,12 C24,18.627417 18.627417,24 12,24 C5.372583,24 0,18.627417 0,12 C0,5.372583 5.372583,0 12,0 Z M12.56,5.12000001 L11.6,8.79999999 C9.99999999,8.88 8.48000001,9.36 7.28000001,10.08 C6.96,9.75999999 6.48,9.6 5.99999999,9.6 C4.88000001,9.6 3.99999999,10.48 3.99999999,11.6 C3.99999999,12.32 4.32,12.88 4.88000001,13.28 L4.8,14 C4.8,16.88 7.99999999,19.2 12,19.2 C16,19.2 19.2,16.88 19.2,14 L19.12,13.28 C19.68,12.88 20,12.32 20,11.6 C20,10.48 19.12,9.6 18,9.6 C17.52,9.6 17.04,9.75999999 16.72,10.08 C15.52,9.36 14.08,8.88 12.4,8.79999999 L13.28,5.60000001 L16,6.39999999 C16,7.28000001 16.72,8.00000001 17.6,8.00000001 C18.48,8.00000001 19.2,7.28000001 19.2,6.39999999 C19.2,5.52 18.48,4.8 17.6,4.8 C17.04,4.8 16.48,5.12000001 16.24,5.60000001 L13.04,4.8 C12.8,4.71999999 12.64,4.88000001 12.56,5.12000001 Z M15.12,15.6 C15.28,15.76 15.2,16 15.04,16.16 C13.6,17.04 10.4,17.04 8.96000001,16.16 C8.79999999,16 8.72000001,15.76 8.88,15.6 C9.03999999,15.44 9.27999999,15.36 9.44000001,15.52 C10.4,16.24 13.6,16.24 14.56,15.52 C14.72,15.36 14.96,15.44 15.12,15.6 Z M9.6,11.84 C10.16,11.84 10.56,12.32 10.56,12.8 C10.56,13.28 10.16,13.76 9.6,13.76 C9.03999999,13.76 8.64,13.36 8.64,12.8 C8.64,12.24 9.03999999,11.84 9.6,11.84 Z M14.4,11.84 C14.96,11.84 15.36,12.32 15.36,12.8 C15.36,13.36 14.96,13.76 14.4,13.76 C13.84,13.76 13.44,13.28 13.44,12.8 C13.44,12.24 13.92,11.84 14.4,11.84 Z"></path>
        </g>
    </g>
</svg>