<?xml version="1.0" encoding="UTF-8"?>
<svg width="24px" height="24px" viewBox="0 0 24 24" version="1.1" xmlns="http://www.w3.org/2000/svg" xmlns:xlink="http://www.w3.org/1999/xlink">
    <title>55B2F1F7-38D5-47E9-B88A-B37F7D9DEAD7</title>
    <g id="控件" stroke="none" stroke-width="1" fill="none" fill-rule="evenodd" opacity="0.800000012">
        <g id="telegram" fill="#FFFFFF">
            <path d="M12,0 C18.627417,0 24,5.372583 24,12 C24,18.627417 18.627417,24 12,24 C5.372583,24 0,18.627417 0,12 C0,5.372583 5.372583,0 12,0 Z M19.168,7.07199999 C19.392,6.17600001 18.832,5.76800001 18.248,6.03200001 L18.248,6.03200001 L5.472,10.96 C4.59999999,11.312 4.608,11.8 5.31200001,12 L5.31200001,12 L8.592,13.04 L16.176,8.24799999 C16.536,8.03199999 16.864,8.15199999 16.592,8.4 L16.592,8.4 L10.448,13.936 L10.224,17.32 C10.552,17.32 10.704,17.168 10.888,16.984 L10.888,16.984 L12.48,15.44 L15.792,17.888 C16.4,18.224 16.84,18.048 16.992,17.32 L16.992,17.32 Z"></path>
        </g>
    </g>
</svg>