<?xml version="1.0" encoding="UTF-8"?>
<svg width="24px" height="24px" viewBox="0 0 24 24" version="1.1" xmlns="http://www.w3.org/2000/svg" xmlns:xlink="http://www.w3.org/1999/xlink">
    <title>3E4A05A6-5C08-4F63-9915-056F2DF53928</title>
    <g id="控件" stroke="none" stroke-width="1" fill="none" fill-rule="evenodd" opacity="0.800000012">
        <g id="twitter" fill="#FFFFFF">
            <path d="M12,0 C18.627417,0 24,5.372583 24,12 C24,18.627417 18.627417,24 12,24 C5.372583,24 0,18.627417 0,12 C0,5.372583 5.372583,0 12,0 Z M14.7698827,6.00144503 C13.9288508,5.97582219 13.1132861,6.29185632 12.5091212,6.87749784 C11.6762928,7.68405365 11.3271464,8.86811544 11.5891212,9.99749784 C8.90912122,10.1574978 7.06912121,8.88549783 5.59712122,7.14149784 C5.50676105,7.03916862 5.36444104,6.99995415 5.23442126,7.04156048 C5.10440148,7.08316681 5.0112872,7.19772025 4.99712122,7.33349784 C4.42281429,10.5192282 5.89061363,13.7260507 8.67712121,15.3734978 C7.76483078,16.4197582 6.48368811,17.0732269 5.10112121,17.1974978 C4.94926514,17.2226812 4.83022224,17.341628 4.8049163,17.4934637 C4.77961035,17.6452994 4.85364115,17.7964251 4.98912121,17.8694978 C6.19193747,18.4705913 7.51650564,18.7880498 8.86112122,18.7974978 C11.2510463,18.8774623 13.5717381,17.9875533 15.2954391,16.3301485 C17.0191402,14.6727436 17.9993377,12.3887206 18.0131212,9.99749784 C18.5552411,9.3266274 18.9577937,8.5541615 19.1971212,7.72549785 C19.233614,7.59175965 19.1882124,7.44905631 19.0811517,7.36099023 C18.974091,7.27292416 18.8253105,7.25589706 18.7011212,7.31749785 C18.1195605,7.59744137 17.4242224,7.47511337 16.9731212,7.01349783 C16.405728,6.39216369 15.6109146,6.02706786 14.7698827,6.00144503 Z"></path>
        </g>
    </g>
</svg>