<?xml version="1.0" encoding="UTF-8"?>
<svg width="24px" height="24px" viewBox="0 0 24 24" version="1.1" xmlns="http://www.w3.org/2000/svg" xmlns:xlink="http://www.w3.org/1999/xlink">
    <!-- Generator: Sketch 52.6 (67491) - http://www.bohemiancoding.com/sketch -->
    <title>画板</title>
    <desc>Created with Sketch.</desc>
    <g id="画板" stroke="none" stroke-width="1" fill="none" fill-rule="evenodd" opacity="0.800000012">
        <rect id="矩形" fill="#ffffff" x="0" y="0" width="24" height="24" rx="12"></rect>
        <g id="微信" transform="translate(5.000000, 5.000000)">
            <rect id="矩形" fill="#000000" opacity="0" x="0" y="0" width="14" height="14"></rect>
            <path d="M9.45460742,4.3574043 C9.60916797,4.3574043 9.76210156,4.36875195 9.91380469,4.38563672 C9.50121484,2.46447852 7.44716602,1.03709375 5.10260352,1.03709375 C2.48141797,1.03709375 0.334263672,2.82369336 0.334263672,5.09233594 C0.334263672,6.4018418 1.04861914,7.4772168 2.24232422,8.31129688 L1.76539453,9.74569531 L3.43231055,8.90982422 C4.02878711,9.02786719 4.50734375,9.14925977 5.10257617,9.14925977 C5.25221484,9.14925977 5.40056836,9.14186328 5.54771875,9.13031055 C5.45455859,8.81152344 5.40058203,8.47762891 5.40058203,8.13116992 C5.4005957,6.04801367 7.1895332,4.35741797 9.45458008,4.35741797 L9.45460742,4.3574043 Z M6.89076172,3.0645918 C7.24979883,3.0645918 7.48766211,3.30080078 7.48766211,3.6595918 C7.48766211,4.01696094 7.24982617,4.2564375 6.89076172,4.2564375 C6.53337891,4.2564375 6.17475195,4.01696094 6.17475195,3.6595918 C6.17475195,3.30078711 6.53335156,3.0645918 6.89076172,3.0645918 Z M3.55356641,4.2564375 C3.19622461,4.2564375 2.8355332,4.01696094 2.8355332,3.6595918 C2.8355332,3.30080078 3.19621094,3.0645918 3.55356641,3.0645918 C3.91093555,3.0645918 4.14879883,3.30080078 4.14879883,3.6595918 C4.14879883,4.01696094 3.91094922,4.2564375 3.55356641,4.2564375 Z M13.806625,8.07385742 C13.806625,6.16750586 11.8989336,4.61358789 9.75635937,4.61358789 C7.48760742,4.61358789 5.70074805,6.16749219 5.70074805,8.07385742 C5.70074805,9.98347656 7.48763477,11.534127 9.75635937,11.534127 C10.2312246,11.534127 10.7101777,11.4143887 11.1870664,11.2948555 L12.494959,12.0110293 L12.1363594,10.8194297 C13.0934863,10.1013828 13.8066113,9.14921875 13.8066113,8.07385742 L13.806625,8.07385742 Z M8.44142578,7.4772168 C8.20401367,7.4772168 7.96449609,7.24100781 7.96449609,7.00010937 C7.96449609,6.7625332 8.204,6.52324805 8.44142578,6.52324805 C8.80210352,6.52324805 9.03832617,6.76251953 9.03832617,7.00010937 C9.03832617,7.24103516 8.80210352,7.4772168 8.44142578,7.4772168 Z M11.0642793,7.4772168 C10.8284805,7.4772168 10.5906445,7.24100781 10.5906445,7.00010937 C10.5906445,6.7625332 10.8284805,6.52324805 11.0642793,6.52324805 C11.4216484,6.52324805 11.6611113,6.76251953 11.6611113,7.00010937 C11.661125,7.24103516 11.4216621,7.4772168 11.0642793,7.4772168 Z" id="形状" fill="#001D42" fill-rule="nonzero"></path>
        </g>
    </g>
</svg>