<?xml version="1.0" encoding="UTF-8"?>
<svg width="146px" height="32px" viewBox="0 0 146 32" version="1.1" xmlns="http://www.w3.org/2000/svg" xmlns:xlink="http://www.w3.org/1999/xlink">
    <title>80C718D7-3811-4C5A-AD34-35C610CC50A7</title>
    <defs>
        <rect id="path-1" x="0" y="0" width="32" height="32"></rect>
        <path d="M5.8503937,0 C6.72295813,0 7.58057153,0.226563813 8.33928763,0.657514561 L9.46002362,1.294 L7.61417323,1.29484643 C6.55150937,1.29484643 5.68090444,2.11714845 5.60395413,3.16015682 L5.5984252,3.31059446 L5.5984252,19.9405157 C5.5984252,21.0031796 6.42072722,21.8737845 7.46373559,21.9507348 L7.61417323,21.9562638 L9.12598425,21.9562638 C10.1886481,21.9562638 11.059253,21.1339617 11.1362034,20.0909534 L11.1417323,19.9405157 L11.1417323,15.6570512 L11.1482367,15.5282396 C11.2084521,14.9353085 11.6798322,14.4639285 12.2727632,14.4037131 L12.4015748,14.3972086 L15.6771654,14.3972086 C16.7398292,14.3972086 17.6104341,13.5749066 17.6873845,12.5318982 L17.6929134,12.3814606 L17.6929134,11.8775236 C17.6929134,10.8148597 16.8706114,9.94425481 15.827603,9.86730449 L15.6771654,9.86177556 L12.4015748,9.86177556 C11.74927,9.86177556 11.2127532,9.36602787 11.1482367,8.73074462 L11.1417323,8.60193304 L11.1417323,7.09012202 L11.1482367,6.96131044 C11.2084521,6.36837941 11.6798322,5.89699935 12.2727632,5.83678392 L12.4015748,5.8302795 L17.4460236,5.83 L24.5925523,9.88936886 C27.0125842,11.263947 27.860092,14.3400863 26.4855138,16.7601183 C26.0367306,17.5502296 25.3826635,18.2042967 24.5925523,18.6530799 L8.33928763,27.8849342 C5.91925566,29.2595124 2.84311635,28.4120046 1.46853818,25.9919726 C1.03758743,25.2332565 0.811023622,24.3756431 0.811023622,23.5030787 L0.811023622,5.03937008 C0.811023622,2.25620284 3.06722646,0 5.8503937,0 Z" id="path-3"></path>
    </defs>
    <g id="控件" stroke="none" stroke-width="1" fill="none" fill-rule="evenodd">
        <g id="logo备份-4">
            <path d="M37.2072441,25.1142047 C37.799874,25.1142047 38.4136693,24.7332283 38.4348346,24.055937 L38.4348346,23.2939843 L38.4348346,23.2939843 C38.4348346,22.024063 38.4162323,19.6938071 38.413907,18.3611029 L38.4136693,18.1084724 C38.4136693,17.6770727 38.6861778,17.6453522 40.5945389,17.6430198 L40.9781688,17.6428361 C41.0118447,17.6428346 41.0459546,17.6428346 41.0805039,17.6428346 C41.8424567,17.6428346 42.5832441,17.664 43.112378,17.7063307 L43.2182047,17.7063307 L43.2182047,17.7063307 C43.9589921,17.7063307 44.3399685,17.1137008 44.3399685,16.4999055 L44.3399596,16.4949668 L44.3399596,16.4949668 L44.3397273,16.4781715 C44.3358673,16.3085385 44.2702473,15.3183807 43.1547087,15.3781417 C42.8553701,15.3947717 42.216306,15.3983352 41.5147099,15.3990988 L40.3771166,15.3990814 C38.5093072,15.3965994 38.4375352,15.3668151 38.4349291,15.0094029 L38.4348346,14.976 L38.4348346,14.976 C38.456,13.7484094 38.4348346,12.6689764 38.4771654,12.1610079 C38.5406614,11.2508976 39.0274646,11.2085669 41.0593386,11.2085669 L41.1332584,11.2085862 L41.1332584,11.2085862 L41.2832643,11.2087366 C41.4093492,11.2089218 41.5379284,11.2092527 41.6674591,11.2097007 L41.8232539,11.2102927 C42.9676498,11.2150196 44.1379333,11.2279333 44.2826687,11.2295626 L44.2976378,11.2297323 L44.2976378,11.2297323 C45.1019213,11.2297323 45.5463937,10.6582677 45.5463937,10.0868031 C45.5463937,9.53650394 45.1654173,9.00737008 44.3611339,8.96503937 C44.0436535,8.94387402 42.9007244,8.92270866 41.7366299,8.92270866 C40.5937008,8.92270866 39.4084409,8.94387402 39.0274646,8.96503937 C37.3130709,9.04970079 36.2124724,9.93864567 36.1701417,11.631874 C36.1066457,13.8542362 36.127811,21.4737638 36.0854803,23.9924409 L36.0854803,24.0136063 C36.0854803,24.7543937 36.6357795,25.1142047 37.2072441,25.1142047 Z M49.7336063,25.1142047 C50.3685669,25.1142047 51.0035276,24.7332283 51.0035276,23.9924409 L51.0035276,23.9712756 C50.9611969,21.367937 50.9400315,18.6164409 50.9400315,15.9707717 C50.9400315,13.9177323 50.9611969,11.928189 51.0035276,10.1714646 L51.0035276,10.1291339 L51.0035276,10.1291339 C51.0035276,9.43067717 50.3685669,9.0920315 49.7547717,9.0920315 C49.3737953,9.0920315 48.4213543,9.32485039 48.463685,10.2137953 C48.5271811,11.928189 48.5695118,13.8542362 48.5695118,15.8649449 C48.5695118,18.5952756 48.5060157,21.4314331 48.463685,23.9712756 L48.463685,23.9924409 C48.463685,24.7332283 49.0986457,25.1142047 49.7336063,25.1142047 Z M66.3448819,25.1988661 C67.3396535,25.1988661 68.2709291,24.4580787 68.2709291,23.1881575 L68.2709291,23.1458268 L68.2709291,23.1458268 C68.2308264,21.401356 68.2097196,18.8210589 68.207609,16.268756 L68.2074331,15.8437795 C68.2074331,13.7272441 68.2285984,11.6742047 68.2709291,10.1926299 L68.2709291,10.1502992 L68.2709291,10.1502992 C68.2709291,9.43067717 67.6571339,9.04970079 67.0433386,9.04970079 C66.3660472,9.04970079 65.7945827,9.49417323 65.815748,10.1926299 C65.8792441,12.1398425 65.9427402,18.7434331 65.9427402,20.7329764 C65.9427402,21.5584252 65.8580787,21.6219213 65.7945827,21.6219213 C65.7310866,21.6219213 65.6252598,21.5160945 65.4982677,21.3256063 C63.8897008,18.9127559 60.3550866,12.3091654 59.0216693,10.1926299 C58.5771969,9.49417323 57.7305827,9.04970079 56.9474646,9.04970079 C56.016189,9.04970079 55.1907402,9.64233071 55.1907402,11.1239055 L55.1907402,11.2085669 L55.1907402,11.2085669 C55.2119055,12.7959685 55.2330709,14.8066772 55.2330709,16.9232126 C55.2330709,19.3572283 55.2119055,21.9182362 55.1695748,24.0982677 L55.1695748,24.1194331 C55.1695748,24.7967244 55.7833701,25.1353701 56.3971654,25.1353701 C57.0109606,25.1353701 57.6035906,24.8178898 57.6035906,24.1405984 L57.6035906,24.0982677 L57.6035906,24.0982677 C57.5738268,23.0466142 57.544063,21.115999 57.5208391,19.1348087 L57.5162835,18.7381417 C57.4939606,16.7538898 57.4786137,14.7742884 57.4767825,13.627724 L57.4767465,13.1269954 C57.4780055,12.393944 57.489966,12.2245039 57.6035906,12.2245039 C57.7094173,12.2245039 57.8575748,12.4996535 57.9422362,12.6266457 C58.5702193,13.6849134 60.0480369,16.3470043 61.4979784,18.9206922 L61.6717815,19.2290021 C62.799901,21.2288504 63.8897008,23.1337323 64.5246614,24.1405984 C64.9902992,24.8602205 65.6675906,25.1988661 66.3448819,25.1988661 Z M72.0983307,25.1353701 C72.6062992,25.1353701 73.0931024,24.8602205 73.2835906,24.2675906 C73.6010709,23.2516535 74.087874,21.727748 74.6170079,20.055685 C74.6593386,19.9286929 74.7651654,19.8651969 74.8709921,19.8651969 C75.2218914,19.8484874 76.179609,19.8449696 77.1921764,19.844229 L77.9029203,19.8440319 C77.936524,19.8440315 77.9700456,19.8440315 78.0034646,19.8440315 L78.1016727,19.8440324 L78.1016727,19.8440324 L78.5798263,19.8442189 C79.2923365,19.8449375 79.8937497,19.8484105 80.1623307,19.8651969 C80.2893228,19.8651969 80.3528189,19.9286929 80.3951496,20.055685 L80.4351867,20.1758473 L80.4351867,20.1758473 L80.5144288,20.4139451 C80.6717643,20.8870075 80.8220535,21.3406145 80.9624984,21.762953 L81.0659425,22.0736594 C81.4155912,23.1224047 81.6948751,23.9427672 81.8555591,24.3310866 C82.0672126,24.8813858 82.5751811,25.1142047 83.0619843,25.1142047 C83.7181102,25.1142047 84.3530709,24.6908976 84.3530709,23.9712756 C84.3530709,23.7807874 84.3107402,23.5691339 84.2260787,23.3574803 C83.8070047,22.3669417 82.6488365,19.3191307 81.496764,16.2164591 L81.3816046,15.9060832 L81.3816046,15.9060832 L81.2666515,15.5957866 C81.2475191,15.5441018 81.2284021,15.4924389 81.2093041,15.4408071 L81.0949708,15.1314636 C81.0759624,15.0799933 81.0569797,15.0285727 81.0380264,14.977211 L80.9246856,14.669822 C80.3600151,13.137154 79.8279181,11.6742047 79.4215433,10.5312756 C79.0828976,9.57883465 78.2574488,9.07086614 77.4531654,9.07086614 C76.6912126,9.07086614 75.9292598,9.51533858 75.5906142,10.4889449 C71.6970356,21.4407458 71.0292602,23.3125082 70.9152477,23.8569122 L70.9080096,23.8936455 C70.8973956,23.951454 70.8937281,23.9930668 70.8924988,24.031564 L70.8919055,24.0543931 L70.8919055,24.0543931 L70.8919055,24.0771024 L70.8919055,24.0771024 C70.8919055,24.7332283 71.5057008,25.1353701 72.0983307,25.1353701 Z M77.6714631,17.6427358 L77.5801575,17.6428346 C76.8393701,17.6428346 76.056252,17.6216693 75.6329449,17.6216693 C75.5059528,17.6216693 75.463622,17.5793386 75.463622,17.4946772 C75.463622,17.3954087 75.8372382,16.2730067 76.2399989,15.1009781 L76.3383588,14.8154303 C76.6778693,13.83208 77.0182322,12.869302 77.1568504,12.4996535 C77.3050079,12.0763465 77.432,11.8858583 77.5378268,11.8858583 C77.6648189,11.8858583 77.7706457,12.0975118 77.8976378,12.4784882 C78.2362835,13.5155906 78.8712441,15.4416378 79.5273701,17.4311811 C79.5485354,17.4735118 79.5485354,17.5158425 79.5485354,17.5370079 C79.5485354,17.6005039 79.5062047,17.6216693 79.3792126,17.6216693 C79.0947502,17.6216693 78.4006621,17.6411753 77.6714631,17.6427358 L77.6714631,17.6427358 Z M98.1705197,25.1988661 C99.1652913,25.1988661 100.096567,24.4580787 100.096567,23.1881575 L100.096567,23.1458268 L100.096567,23.1458268 C100.056464,21.401356 100.035357,18.8210589 100.033247,16.268756 L100.033071,15.8437795 C100.033071,13.7272441 100.054236,11.6742047 100.096567,10.1926299 L100.096567,10.1502992 L100.096567,10.1502992 C100.096567,9.43067717 99.4827717,9.04970079 98.8689764,9.04970079 C98.191685,9.04970079 97.6202205,9.49417323 97.6413858,10.1926299 C97.7048819,12.1398425 97.768378,18.7434331 97.768378,20.7329764 C97.768378,21.5584252 97.6837165,21.6219213 97.6202205,21.6219213 C97.5567244,21.6219213 97.4508976,21.5160945 97.3239055,21.3256063 C95.7153386,18.9127559 92.1807244,12.3091654 90.8473071,10.1926299 C90.4028346,9.49417323 89.5562205,9.04970079 88.7731024,9.04970079 C87.8418268,9.04970079 87.016378,9.64233071 87.016378,11.1239055 L87.016378,11.2085669 L87.016378,11.2085669 C87.0375433,12.7959685 87.0587087,14.8066772 87.0587087,16.9232126 C87.0587087,19.3572283 87.0375433,21.9182362 86.9952126,24.0982677 L86.9952126,24.1194331 C86.9952126,24.7967244 87.6090079,25.1353701 88.2228031,25.1353701 C88.8365984,25.1353701 89.4292283,24.8178898 89.4292283,24.1405984 L89.4292283,24.0982677 L89.4292283,24.0982677 C89.3994646,23.0466142 89.3697008,21.115999 89.3464769,19.1348087 L89.3419213,18.7381417 C89.3195984,16.7538898 89.3042515,14.7742884 89.3024203,13.627724 L89.3023843,13.1269954 C89.3036433,12.393944 89.3156038,12.2245039 89.4292283,12.2245039 C89.5350551,12.2245039 89.6832126,12.4996535 89.767874,12.6266457 C90.3958571,13.6849134 91.8736747,16.3470043 93.3236162,18.9206922 L93.4974193,19.2290021 C94.6255388,21.2288504 95.7153386,23.1337323 96.3502992,24.1405984 C96.815937,24.8602205 97.4932283,25.1988661 98.1705197,25.1988661 Z M115.310929,25.1988661 C116.305701,25.1988661 117.236976,24.4580787 117.236976,23.1881575 L117.236976,23.1458268 L117.236976,23.1458268 C117.196874,21.401356 117.175767,18.8210589 117.173656,16.268756 L117.17348,15.8437795 C117.17348,13.7272441 117.194646,11.6742047 117.236976,10.1926299 L117.236976,10.1502992 L117.236976,10.1502992 C117.236976,9.43067717 116.623181,9.04970079 116.009386,9.04970079 C115.332094,9.04970079 114.76063,9.49417323 114.781795,10.1926299 C114.845291,12.1398425 114.908787,18.7434331 114.908787,20.7329764 C114.908787,21.5584252 114.824126,21.6219213 114.76063,21.6219213 C114.697134,21.6219213 114.591307,21.5160945 114.464315,21.3256063 C112.855748,18.9127559 109.321134,12.3091654 107.987717,10.1926299 C107.543244,9.49417323 106.69663,9.04970079 105.913512,9.04970079 C104.982236,9.04970079 104.156787,9.64233071 104.156787,11.1239055 L104.156787,11.2085669 L104.156787,11.2085669 C104.177953,12.7959685 104.199118,14.8066772 104.199118,16.9232126 C104.199118,19.3572283 104.177953,21.9182362 104.135622,24.0982677 L104.135622,24.1194331 C104.135622,24.7967244 104.749417,25.1353701 105.363213,25.1353701 C105.977008,25.1353701 106.569638,24.8178898 106.569638,24.1405984 L106.569638,24.0982677 L106.569638,24.0982677 C106.539874,23.0466142 106.51011,21.115999 106.486886,19.1348087 L106.482331,18.7381417 C106.460008,16.7538898 106.444661,14.7742884 106.44283,13.627724 L106.442794,13.1269954 C106.444053,12.393944 106.456013,12.2245039 106.569638,12.2245039 C106.675465,12.2245039 106.823622,12.4996535 106.908283,12.6266457 C107.536267,13.6849134 109.014084,16.3470043 110.464026,18.9206922 L110.637829,19.2290021 C111.765948,21.2288504 112.855748,23.1337323 113.490709,24.1405984 C113.956346,24.8602205 114.633638,25.1988661 115.310929,25.1988661 Z M130.059654,25.3046929 C130.969764,25.2623622 131.393071,24.6908976 131.393071,24.1194331 C131.393071,23.5691339 130.990929,23.04 130.250142,23.04 L130.144315,23.04 L130.144315,23.04 C129.763339,23.0600514 128.52754,23.0801028 127.336732,23.0821579 L126.832629,23.0821334 C124.130905,23.0781826 123.812139,23.0056374 123.710047,22.0663937 L123.70847,22.0528363 L123.70847,22.0528363 L123.705374,22.0252453 C123.668705,21.6896289 123.64918,21.1740012 123.646799,18.6268169 L123.646551,18.0661417 C123.646551,17.6453745 123.83623,17.6039656 126.083044,17.6007456 L126.37901,17.6005162 C126.413151,17.6005077 126.447715,17.6005039 126.482709,17.6005039 C127.286992,17.6005039 128.091276,17.6216693 128.620409,17.664 L128.726236,17.664 L128.726236,17.664 C129.467024,17.664 129.848,17.0713701 129.848,16.4575748 L129.847991,16.452636 L129.847991,16.452636 L129.847759,16.4358408 C129.843899,16.2662078 129.778279,15.27605 128.66274,15.335811 C128.357959,15.3527433 127.646803,15.3561298 126.876046,15.3568071 L125.729472,15.3567761 C123.772068,15.3545063 123.672854,15.3265116 123.667964,14.9812441 L123.667717,14.9336693 L123.667717,14.9336693 C123.688882,13.7060787 123.667717,12.6689764 123.710047,12.1610079 C123.773543,11.2508976 124.218016,11.2085669 126.334551,11.2085669 L126.410699,11.2085862 L126.410699,11.2085862 L126.565154,11.2087366 C126.643027,11.2088477 126.721792,11.2090113 126.801109,11.2092211 L126.960378,11.2097007 L126.960378,11.2097007 L127.120517,11.2102927 C128.296584,11.2150196 129.494113,11.2279333 129.642197,11.2295626 L129.657512,11.2297323 L129.657512,11.2297323 C130.461795,11.2297323 130.906268,10.6582677 130.906268,10.0868031 C130.906268,9.53650394 130.525291,9.00737008 129.721008,8.96503937 C129.403528,8.94387402 128.239433,8.92270866 127.033008,8.92270866 C125.847748,8.92270866 124.641323,8.94387402 124.260346,8.96503937 C122.545953,9.04970079 121.445354,9.93864567 121.403024,11.631874 C121.371276,12.631937 121.351433,14.5011024 121.343496,16.4625354 L121.342369,16.7649176 L121.342369,16.7649176 L121.34103,17.2198455 C121.340905,17.2704179 121.340788,17.3209854 121.340678,17.3715351 L121.340115,17.6745133 C121.339958,17.7753645 121.339833,17.8760393 121.339675,17.976433 L121.339675,19.1931784 C121.340499,20.599415 121.345941,21.8412713 121.381858,22.5955276 C121.46652,24.4580787 122.672945,25.1565354 124.620157,25.3046929 C124.88155,25.3248 126.00252,25.3449071 127.148322,25.3468675 L127.513342,25.3468675 C128.677291,25.3449071 129.798261,25.3248 130.059654,25.3046929 Z M140.342488,25.0930394 C140.433861,25.0930394 140.525233,25.0930394 140.616224,25.0927077 L140.797584,25.0921334 C141.881339,25.0878771 142.873555,25.0692929 143.11515,25.0507087 C144.02526,25.008378 144.448567,24.415748 144.448567,23.8442835 C144.448567,23.2728189 144.02526,22.7225197 143.305638,22.7225197 L143.199811,22.7225197 L143.199811,22.7225197 C142.84,22.7414571 141.717709,22.7603945 140.606119,22.7641715 L140.410224,22.7646776 L140.410224,22.7646776 L139.715396,22.7646201 C137.281639,22.7610731 136.866208,22.702903 136.786709,21.7489134 C136.766826,21.4109091 136.746943,20.549932 136.744606,19.4467121 L136.744532,18.9744422 C136.745554,18.1100763 136.751611,17.1321209 136.761222,16.148686 L136.764211,15.8535993 C136.764726,15.8044268 136.76525,15.7552676 136.765782,15.7061353 L136.769074,15.4117716 C136.793361,13.3060233 136.832365,11.2998803 136.87137,10.4677795 L136.87137,10.3831181 L136.87137,10.3831181 C136.87137,9.51533858 136.257575,9.0920315 135.664945,9.0920315 C135.072315,9.0920315 134.479685,9.51533858 134.479685,10.3407874 L134.479685,10.8064252 L134.479685,10.8064252 C134.479685,12.8650344 134.397968,17.3751506 134.395101,20.2824686 L134.395256,20.9416685 C134.396069,21.5093007 134.399727,21.9958425 134.416189,22.3415433 C134.479685,24.2040945 135.64378,24.9025512 137.590992,25.0507087 C137.832587,25.0692929 138.824803,25.0878771 139.89423,25.0921334 L140.073067,25.0927077 C140.162727,25.0930394 140.252664,25.0930394 140.342488,25.0930394 Z" id="FINANNEL" fill="#001D42" fill-rule="nonzero"></path>
            <g id="logo">
                <mask id="mask-2" fill="white">
                    <use xlink:href="#path-1"></use>
                </mask>
                <use id="矩形" fill="#D8D8D8" opacity="0" xlink:href="#path-1"></use>
                <g id="编组-6" mask="url(#mask-2)">
                    <g transform="translate(2.188976, 3.240587)">
                        <mask id="mask-4" fill="white">
                            <use xlink:href="#path-3"></use>
                        </mask>
                        <use id="路径" stroke="none" fill="#4572CC" fill-rule="evenodd" xlink:href="#path-3"></use>
                        <circle id="椭圆形" stroke="none" fill="#FFFFFF" fill-rule="evenodd" opacity="0.200000003" mask="url(#mask-4)" cx="5.34645669" cy="24.4759488" r="12.3464567"></circle>
                        <circle id="椭圆形备份-2" stroke="none" fill="#FFFFFF" fill-rule="evenodd" opacity="0.200000003" mask="url(#mask-4)" cx="5.34645669" cy="24.4759488" r="5.79527559"></circle>
                    </g>
                </g>
                <rect id="矩形" fill="#4572CC" mask="url(#mask-2)" x="18.6220472" y="2.01574803" width="3.52755906" height="3.52755906" rx="0.503937008"></rect>
                <rect id="矩形备份-18" fill="#4572CC" opacity="0.5" mask="url(#mask-2)" x="23.4094488" y="0" width="2.51968504" height="2.51968504" rx="0.503937008"></rect>
                <rect id="矩形备份-19" fill="#4572CC" opacity="0.800000012" mask="url(#mask-2)" x="14.3385827" y="3.27559055" width="2.26771654" height="2.26771654" rx="0.503937008"></rect>
                <rect id="矩形备份-20" fill="#4572CC" opacity="0.800000012" mask="url(#mask-2)" x="21.1417323" y="6.5511811" width="2.26771654" height="2.26771654" rx="0.503937008"></rect>
            </g>
        </g>
    </g>
</svg>